<svg xmlns="http://www.w3.org/2000/svg" width="37.074" height="49.25" viewBox="0 0 37.074 49.25"><defs><style>.a{fill:#e1e6e9;}.b{fill:#ebf0f3;}.c{fill:#5aca42;}</style></defs><path class="a" d="M89.206,1.313V43.495h-30a1.313,1.313,0,0,1-1.313-1.313V7.852L65.742,0H87.893A1.313,1.313,0,0,1,89.206,1.313Z" transform="translate(-57.89)"/><path class="b" d="M65.742,0V7.852H57.89Z" transform="translate(-57.89)"/><g transform="translate(8.956 5.89)"><rect class="c" width="16.496" height="1.938" transform="translate(2.68)"/><rect class="c" width="19.181" height="1.938" transform="translate(0 5.955)"/><rect class="c" width="19.181" height="1.938" transform="translate(0 11.911)"/><rect class="c" width="19.181" height="1.938" transform="translate(0 17.866)"/><rect class="c" width="19.181" height="1.938" transform="translate(0 23.822)"/><rect class="c" width="19.181" height="1.938" transform="translate(0 29.777)"/></g><g transform="translate(3.182 11.845)"><rect class="c" width="2.626" height="1.938" transform="translate(0)"/><rect class="c" width="2.626" height="1.938" transform="translate(0 5.955)"/><rect class="c" width="2.626" height="1.938" transform="translate(0 11.911)"/><rect class="c" width="2.626" height="1.938" transform="translate(0 17.867)"/><rect class="c" width="2.626" height="1.938" transform="translate(0 23.822)"/></g><path class="c" d="M10.4,0A10.4,10.4,0,1,1,0,10.4,10.4,10.4,0,0,1,10.4,0Z" transform="translate(16.284 28.46)"/><path class="b" d="M253.487,326.131a1.17,1.17,0,0,1-.823-.341l-3.216-3.216a1.164,1.164,0,1,1,1.647-1.647l2.093,2.092a24,24,0,0,1,7.23-8.224,1.165,1.165,0,0,1,1.315,1.922,22.317,22.317,0,0,0-7.2,8.759,1.165,1.165,0,0,1-1.047.655Z" transform="translate(-228.996 -281.506)"/></svg>