<svg xmlns="http://www.w3.org/2000/svg" width="12.432" height="11.815" viewBox="0 0 12.432 11.815"><defs><style>.a{fill:#0057ff;stroke:#0057ff;stroke-width:0.25px;}</style></defs><g transform="translate(0.125 0.125)"><g transform="translate(4.225 2.328)"><g transform="translate(0 0)"><path class="a" d="M179.446,110.825a1.866,1.866,0,1,0,1.866,1.866A1.868,1.868,0,0,0,179.446,110.825Zm0,2.806a.941.941,0,1,1,.941-.941A.942.942,0,0,1,179.446,113.631Z" transform="translate(-177.58 -110.825)"/></g></g><g transform="translate(5.628 5.15)"><g transform="translate(0 0)"><path class="a" d="M237.02,229.428a.463.463,0,0,0-.463.463v5.489a.463.463,0,1,0,.925,0v-5.489A.463.463,0,0,0,237.02,229.428Z" transform="translate(-236.557 -229.428)"/></g></g><g transform="translate(5.628 0)"><path class="a" d="M237.02,12.962a.463.463,0,0,0-.463.463v2.328a.463.463,0,1,0,.925,0V13.425A.463.463,0,0,0,237.02,12.962Z" transform="translate(-236.557 -12.962)"/></g><g transform="translate(8.45 5.505)"><g transform="translate(0 0)"><path class="a" d="M357.026,244.334a1.866,1.866,0,1,0,1.866,1.866A1.868,1.868,0,0,0,357.026,244.334Zm0,2.807a.941.941,0,1,1,.941-.941A.942.942,0,0,1,357.026,247.141Z" transform="translate(-355.16 -244.334)"/></g></g><g transform="translate(9.853 8.311)"><path class="a" d="M414.6,362.289a.463.463,0,0,0-.462.463v2.328a.463.463,0,1,0,.925,0v-2.328A.463.463,0,0,0,414.6,362.289Z" transform="translate(-414.137 -362.289)"/></g><g transform="translate(9.853 0)"><path class="a" d="M414.6,12.962a.463.463,0,0,0-.462.463v5.489a.463.463,0,1,0,.925,0V13.425A.463.463,0,0,0,414.6,12.962Z" transform="translate(-414.137 -12.962)"/></g><g transform="translate(0 5.505)"><g transform="translate(0 0)"><path class="a" d="M1.866,244.334A1.866,1.866,0,1,0,3.732,246.2,1.868,1.868,0,0,0,1.866,244.334Zm0,2.807a.941.941,0,1,1,.941-.941A.942.942,0,0,1,1.866,247.141Z" transform="translate(0 -244.334)"/></g></g><g transform="translate(1.403 8.311)"><path class="a" d="M59.44,362.289a.463.463,0,0,0-.463.463v2.328a.463.463,0,1,0,.925,0v-2.328A.463.463,0,0,0,59.44,362.289Z" transform="translate(-58.977 -362.289)"/></g><g transform="translate(1.403 0)"><path class="a" d="M59.44,12.962a.463.463,0,0,0-.463.463v5.489a.463.463,0,1,0,.925,0V13.425A.463.463,0,0,0,59.44,12.962Z" transform="translate(-58.977 -12.962)"/></g></g></svg>