<svg xmlns="http://www.w3.org/2000/svg" width="40.19" height="40.218" viewBox="0 0 40.19 40.218"><defs><style>.a{fill:#696969;stroke:#fcfcfc;}</style></defs><g transform="translate(0.5 0.494)"><g transform="translate(0 0.006)"><path class="a" d="M36.894,20.947V17.3a1.148,1.148,0,0,0-1.148-1.148,34.636,34.636,0,0,0-6.673.609,10.366,10.366,0,0,0-4.31-2.5,8.037,8.037,0,1,0-10.335,0,10.368,10.368,0,0,0-4.31,2.5,34.642,34.642,0,0,0-6.673-.609A1.148,1.148,0,0,0,2.3,17.3v3.642A3.45,3.45,0,0,0,0,24.194v2.3a3.45,3.45,0,0,0,2.3,3.247v3.642a1.148,1.148,0,0,0,1.148,1.148A26.719,26.719,0,0,1,18.958,39a1.152,1.152,0,0,0,1.274,0,26.719,26.719,0,0,1,15.514-4.476,1.148,1.148,0,0,0,1.148-1.148V29.737a3.45,3.45,0,0,0,2.3-3.247v-2.3A3.45,3.45,0,0,0,36.894,20.947ZM13.854,8.12A5.741,5.741,0,1,1,19.6,13.86,5.786,5.786,0,0,1,13.854,8.12ZM3.444,27.638A1.149,1.149,0,0,1,2.3,26.49v-2.3a1.148,1.148,0,1,1,2.3,0v2.3A1.149,1.149,0,0,1,3.444,27.638Zm15,8.35A28.727,28.727,0,0,0,4.593,32.247v-2.51a3.45,3.45,0,0,0,2.3-3.247v-2.3a3.45,3.45,0,0,0-2.3-3.247V18.469a25.952,25.952,0,0,1,13.854,4.05ZM19.6,20.53a27.287,27.287,0,0,0-6.68-3.071,8.054,8.054,0,0,1,4.383-1.3h4.593a8.054,8.054,0,0,1,4.383,1.3A27.285,27.285,0,0,0,19.6,20.53Zm15,11.717a28.729,28.729,0,0,0-13.854,3.741V22.521A25.95,25.95,0,0,1,34.6,18.469v2.478a3.45,3.45,0,0,0-2.3,3.247v2.3a3.45,3.45,0,0,0,2.3,3.247Zm2.3-5.757a1.148,1.148,0,1,1-2.3,0v-2.3a1.148,1.148,0,1,1,2.3,0Z" transform="translate(0 -0.006)"/></g></g></svg>