<svg xmlns="http://www.w3.org/2000/svg" width="16.667" height="16.667" viewBox="0 0 16.667 16.667"><defs><style>.a{fill:#ccc;}.b{fill:#696969;}</style></defs><path class="a" d="M15.972,171.52H.694a.7.7,0,0,0-.694.694v8.306A2.086,2.086,0,0,0,2.083,182.6h12.5a2.086,2.086,0,0,0,2.083-2.083v-8.306A.7.7,0,0,0,15.972,171.52Zm0,0" transform="translate(0 -165.937)"/><path class="b" d="M14.583,64H2.083A2.083,2.083,0,0,0,0,66.083v2.111H16.667V66.083A2.083,2.083,0,0,0,14.583,64Zm0,0" transform="translate(0 -61.917)"/><g transform="translate(2.778)"><path class="a" d="M86.721,0h-.694a.7.7,0,0,0-.695.694V3.472a.7.7,0,0,0,.695.694h.694a.7.7,0,0,0,.694-.694V.694A.7.7,0,0,0,86.721,0Zm0,0" transform="translate(-85.332 0)"/><path class="a" d="M364.057,0h-.694a.7.7,0,0,0-.694.694V3.472a.7.7,0,0,0,.694.694h.694a.7.7,0,0,0,.695-.694V.694A.7.7,0,0,0,364.057,0Zm0,0" transform="translate(-353.64 0)"/></g></svg>