<svg xmlns="http://www.w3.org/2000/svg" width="36.48" height="39.733" viewBox="0 0 36.48 39.733"><defs><style>.a{fill:#696969;}</style></defs><g transform="translate(-20.799)"><g transform="translate(20.799 0)"><path class="a" d="M44.827,19.288a16.246,16.246,0,0,0,3.786-9.675,9.613,9.613,0,0,0-19.225,0,16.246,16.246,0,0,0,3.786,9.675c-14.1,4.74-12.624,17.786-12.006,20.445H56.833A17.3,17.3,0,0,0,44.827,19.288ZM39,1.283a8.319,8.319,0,0,1,7.579,4.9c-3.2,2.182-6.445-.282-6.445-.282a6.754,6.754,0,0,0-7.258.305l-1.94,1.361A8.34,8.34,0,0,1,39,1.283Zm-8.33,8.33c0-.1.008-.2.016-.305l2.925-2.057A5.469,5.469,0,0,1,39.485,7a7.031,7.031,0,0,0,7.54.415A8.412,8.412,0,0,1,47.33,9.6c0,4.552-3.731,11.537-8.33,11.537S30.67,14.165,30.67,9.613Zm25.1,28.838H22.238a15.986,15.986,0,0,1,6.03-15.275,18.193,18.193,0,0,0,1.6,5.17,5.129,5.129,0,0,0-2.1,6.03l1.064,3.019,2.417-.853-.422-1.212-1.212.422-.641-1.815a3.847,3.847,0,1,1,7.258-2.55l.634,1.815-1.212.422.422,1.212,2.417-.853L37.42,30.958a5.123,5.123,0,0,0-6.406-3.176,16.8,16.8,0,0,1-1.572-5.452,16.193,16.193,0,0,1,4.748-2.018,7.175,7.175,0,0,0,4.8,2.088,7.175,7.175,0,0,0,4.8-2.088,15.926,15.926,0,0,1,5.452,2.5,16.645,16.645,0,0,1-1.877,4.826,2.485,2.485,0,0,0-.688-.109,2.565,2.565,0,1,0,2.565,2.565,2.54,2.54,0,0,0-.767-1.822,18.12,18.12,0,0,0,1.877-4.6A16.089,16.089,0,0,1,55.769,38.451Zm-7.8-8.33a1.283,1.283,0,1,1-1.283-1.283A1.289,1.289,0,0,1,47.971,30.121Z" transform="translate(-20.799 0)"/></g></g></svg>