<svg xmlns="http://www.w3.org/2000/svg" width="36.8" height="36.8" viewBox="0 0 36.8 36.8"><defs><style>.a{fill:#ccc;stroke:#f9f9f9;stroke-width:0.4px;}</style></defs><g transform="translate(0.2 0.2)"><path class="a" d="M20.858,30.717a9.858,9.858,0,1,1,9.858-9.858A9.87,9.87,0,0,1,20.858,30.717Zm0-17.442a7.583,7.583,0,1,0,7.583,7.583A7.592,7.592,0,0,0,20.858,13.275Z" transform="translate(5.684 5.684)"/><path class="a" d="M17.888,24.617a1.138,1.138,0,0,1-1.138-1.138V15.138a1.138,1.138,0,1,1,2.275,0v8.342A1.138,1.138,0,0,1,17.888,24.617Z" transform="translate(8.654 7.234)"/><path class="a" d="M23.479,19.025H15.138a1.138,1.138,0,1,1,0-2.275h8.342a1.138,1.138,0,0,1,0,2.275Z" transform="translate(7.234 8.654)"/><path class="a" d="M13.938,31.85H4.171A4.174,4.174,0,0,1,0,27.679V4.171A4.174,4.174,0,0,1,4.171,0H21.613a4.174,4.174,0,0,1,4.171,4.171v9.237a1.138,1.138,0,1,1-2.275,0V4.171a1.9,1.9,0,0,0-1.9-1.9H4.171a1.9,1.9,0,0,0-1.9,1.9V27.679a1.9,1.9,0,0,0,1.9,1.9h9.767a1.138,1.138,0,0,1,0,2.275Z"/><path class="a" d="M18.546,10.275H4.138A1.138,1.138,0,0,1,4.138,8H18.546a1.138,1.138,0,0,1,0,2.275Z" transform="translate(1.55 4.133)"/><path class="a" d="M12.479,14.275H4.138a1.138,1.138,0,0,1,0-2.275h8.342a1.138,1.138,0,1,1,0,2.275Z" transform="translate(1.55 6.2)"/><path class="a" d="M10.963,6.275H4.138A1.138,1.138,0,0,1,4.138,4h6.825a1.138,1.138,0,0,1,0,2.275Z" transform="translate(1.55 2.067)"/></g></svg>