<svg xmlns="http://www.w3.org/2000/svg" width="20.347" height="15.26" viewBox="0 0 20.347 15.26"><defs><style>.a{fill:#696969;}</style></defs><path class="a" d="M18.439,59.882H1.908A1.91,1.91,0,0,0,0,61.79V73.235a1.91,1.91,0,0,0,1.908,1.908H18.439a1.91,1.91,0,0,0,1.908-1.908V61.79A1.91,1.91,0,0,0,18.439,59.882Zm0,1.272a.632.632,0,0,1,.244.049l-8.51,7.375L1.664,61.2a.633.633,0,0,1,.244-.049Zm0,12.717H1.908a.636.636,0,0,1-.636-.636V62.546L9.757,69.9a.637.637,0,0,0,.833,0l8.485-7.354V73.235A.636.636,0,0,1,18.439,73.871Z" transform="translate(0 -59.882)"/></svg>