<svg xmlns="http://www.w3.org/2000/svg" width="15.825" height="11.992" viewBox="0 0 15.825 11.992"><defs><style>.a{fill:#0057ff;}</style></defs><g transform="translate(6.738 4.791)"><g transform="translate(0 0)"><circle class="a" cx="1.205" cy="1.205" r="1.205"/></g></g><g transform="translate(4.42 2.473)"><g transform="translate(0 0)"><path class="a" d="M146.537,142a3.523,3.523,0,1,0,3.523,3.523A3.527,3.527,0,0,0,146.537,142Zm0,5.811a2.287,2.287,0,1,1,2.287-2.287A2.29,2.29,0,0,1,146.537,147.813Z" transform="translate(-143.014 -142.002)"/></g></g><g transform="translate(0 0)"><path class="a" d="M15.424,66.65a11.949,11.949,0,0,0-2.762-2.925A7.864,7.864,0,0,0,7.926,62,7.9,7.9,0,0,0,3.185,63.72,12.034,12.034,0,0,0,.407,66.641a2.469,2.469,0,0,0,0,2.716,12.034,12.034,0,0,0,2.779,2.921A7.9,7.9,0,0,0,7.926,74a8.573,8.573,0,0,0,5.717-2.546.618.618,0,0,0-.846-.9,7.372,7.372,0,0,1-4.871,2.211c-3,0-5.489-2.565-6.486-4.081a1.234,1.234,0,0,1,0-1.357c1-1.516,3.485-4.081,6.486-4.081s5.474,2.568,6.462,4.085a1.237,1.237,0,0,1,0,1.349.618.618,0,0,0,1.036.675A2.474,2.474,0,0,0,15.424,66.65Z" transform="translate(0 -62.003)"/></g></svg>