<svg xmlns="http://www.w3.org/2000/svg" width="36.7" height="30.803" viewBox="0 0 36.7 30.803"><defs><style>.a{fill:#696969;stroke:#fcfcfc;stroke-width:0.2px;}</style></defs><path class="a" d="M35.727,61.11H.773a.773.773,0,0,1,0-1.546H35.727a.773.773,0,1,1,0,1.546Zm-1.418-3.524a.773.773,0,0,1-.773-.773V39.725H28.328a.773.773,0,0,1,0-1.546h5.981a.773.773,0,0,1,.773.773c0,.006,0,.011,0,.017V56.812A.773.773,0,0,1,34.309,57.585Zm-6.708,0a.773.773,0,0,1-.773-.773V48.078a.773.773,0,1,1,1.546,0v8.734A.773.773,0,0,1,27.6,57.585Zm-6.234,0a.773.773,0,0,1-.773-.773V48.078a.773.773,0,1,1,1.546,0v8.734A.773.773,0,0,1,21.367,57.585Zm-6.234,0a.773.773,0,0,1-.773-.773V48.078a.773.773,0,1,1,1.546,0v8.734A.773.773,0,0,1,15.133,57.585Zm-6.234,0a.773.773,0,0,1-.773-.773V48.078a.773.773,0,1,1,1.546,0v8.734A.773.773,0,0,1,8.9,57.585Zm-6.708,0a.773.773,0,0,1-.773-.773V38.975q0-.011,0-.023a.773.773,0,0,1,.773-.773H8.173a.773.773,0,0,1,0,1.546H2.965V56.812A.773.773,0,0,1,2.191,57.585ZM31.03,50.355a.773.773,0,0,1-.773-.773v-1.5a.773.773,0,1,1,1.546,0v1.5A.773.773,0,0,1,31.03,50.355Zm-25.559,0a.773.773,0,0,1-.773-.773v-1.5a.773.773,0,1,1,1.546,0v1.5A.773.773,0,0,1,5.471,50.355ZM31.03,45.639a.773.773,0,0,1-.773-.773v-1.5a.773.773,0,0,1,1.546,0v1.5A.773.773,0,0,1,31.03,45.639Zm-25.559,0a.773.773,0,0,1-.773-.773v-1.5a.773.773,0,1,1,1.546,0v1.5A.773.773,0,0,1,5.471,45.639Zm22.13,0H8.9a.773.773,0,0,1,0-1.546H27.6a.773.773,0,1,1,0,1.546ZM27.6,43a.771.771,0,0,1-.343-.081l-9.091-4.5-8.919,4.5a.773.773,0,1,1-.7-1.381l8.926-4.5V31.28a.773.773,0,0,1,.773-.773h5.589a.773.773,0,0,1,.773.773V34.2a.773.773,0,0,1-.773.773H19.023v2.143l8.921,4.42A.773.773,0,0,1,27.6,43Zm-8.577-9.576h4.043V32.053H19.023Z" transform="translate(0.1 -30.407)"/></svg>