<svg xmlns="http://www.w3.org/2000/svg" width="311.806" height="263.058" viewBox="0 0 311.806 263.058"><defs><style>.a{fill:#5793ce;}.b{fill:#c4d9e8;}.c{fill:#d4ecff;}.d{fill:#173d7a;}.e{fill:#fff;}.f{fill:#396caa;}.g{fill:#d3d0cf;}.h{fill:#f2f2f2;}.i{fill:#ffc2b0;}.j{fill:#ea9c92;}.k{fill:#e7a376;}.l{fill:#422d22;}.m{fill:#274f89;}.n{fill:#0e5080;}.o{fill:#11639d;}</style></defs><g transform="translate(0 0.001)"><g transform="translate(0 -0.001)"><rect class="a" width="2.03" height="5.888" transform="matrix(0.248, 0.969, -0.969, 0.248, 270.801, 233.742)"/><rect class="a" width="2.03" height="5.888" transform="translate(267.859 236.57) rotate(75.63)"/><rect class="a" width="2.03" height="5.888" transform="translate(264.94 239.406) rotate(75.63)"/><rect class="a" width="2.03" height="5.888" transform="matrix(0.248, 0.969, -0.969, 0.248, 262.075, 242.262)"/><path class="b" d="M142.713,55.06,89.16,86.486c-13.582-4.166-30.884-2.88-42.3,3.826-13.89,8.141-13.816,21.255.2,29.152A42.648,42.648,0,0,0,57.607,123.6a56.231,56.231,0,0,0,8.375,1.445c11.138,1.063,23.02-.9,31.6-5.93,10.373-6.09,12.945-14.879,7.737-22.318l7.439-4.336-.213-4.687h7.779l-.2-4.4,7.779-.053-.191-4.389h7.769l-.191-4.4h7.779l-.2-4.389,8.311-.064L153.7,68.6l2.8-11.542ZM67.352,115.191a14.539,14.539,0,0,1-13.146.085c-3.645-2.062-3.677-5.463,0-7.588a14.539,14.539,0,0,1,13.146-.085C70.944,109.665,70.966,113.066,67.352,115.191Z" transform="translate(2.291 3.457)"/><path class="b" d="M168.459,247.749,96.244,206.195c-4.867-2.806-4.251-7.705,1.36-10.957l70.143-40.47c5.611-3.188,14.1-3.592,18.97-.786l72.268,41.533c4.867,2.806,4.251,7.705-1.36,10.957l-70.143,40.47C181.829,250.2,173.337,250.555,168.459,247.749Z" transform="translate(5.835 9.549)"/><path class="a" d="M248.42,158.026l-12.434-7.206,46.039-26.569c2.179-1.254,2.179-3.295,0-4.549l-47.1-27.175a8.672,8.672,0,0,0-7.886,0L180.988,119.1,168.5,111.881l46.05-26.569c9.055-5.229,23.8-5.229,32.861,0l47.028,27.154c9.055,5.239,9.055,13.752,0,18.981Z" transform="translate(10.576 5.11)"/><path class="c" d="M274.352,160.422c0-6.674-4.06-14.432-9.065-17.323L181.86,94.934c-2.242-1.3-4.251-1.382-5.877-.5h0l-99.6,57.878,96.308,72.576,98.125-56.954a4.741,4.741,0,0,0,.871-.5h0C273.332,166.193,274.352,163.759,274.352,160.422Z" transform="translate(4.794 5.892)"/><path class="d" d="M167.747,221.527l98.125-56.954a4.741,4.741,0,0,0,.871-.5h0c1.637-1.243,2.657-3.677,2.657-7.014a22.318,22.318,0,0,0-2.444-9.65L155.1,211.994Z" transform="translate(9.735 9.254)"/><path class="a" d="M166.573,221.247,83.145,173.082c-5.006-2.891-9.065-10.628-9.065-17.323h0c0-6.674,4.06-9.746,9.065-6.855l83.427,48.165c5.006,2.891,9.065,10.628,9.065,17.323h0C175.638,221.066,171.578,224.138,166.573,221.247Z" transform="translate(4.65 9.28)"/><path class="e" d="M150.049,202.259l-10.033-5.781a4.325,4.325,0,0,1-1.807-3.454h0c0-1.328.808-1.945,1.807-1.36l10.033,5.781a4.325,4.325,0,0,1,1.807,3.454h0C151.856,202.227,151.048,202.843,150.049,202.259Z" transform="translate(8.675 12.018)"/><path class="f" d="M78.49,44.435,95.632,54.17,113.115,43.9l-.043-4.464-.149.1-.021-.319,7.779-.053-.043-4.4,7.631-.053-.053-4.389,7.631-.053-.043-4.4,7.62-.053-.042-4.389,8.151-.064,2.54-1.488,2.8-11.531-.053-4.464-1.339,4.272L143.128,6.505Z" transform="translate(4.927 0.245)"/><path class="c" d="M95.582,49.815l17.493-10.266-.213-4.687,7.779-.053-.2-4.4,7.779-.053-.191-4.389,7.779-.053-.2-4.4,7.779-.053-.191-4.389,8.3-.064,2.529-1.488,2.8-11.531L143.088,2.15,78.44,40.08Z" transform="translate(4.924 0.136)"/><path class="f" d="M107.23,41.179a24.114,24.114,0,0,0-7.939-6.844,40.693,40.693,0,0,0-8.215-3.475L78.45,38.3l17.132,9.714Z" transform="translate(4.924 1.938)"/><path class="a" d="M155.084,5.832l.468-1.934-2.3-.308L98.64,35.632l2.869,1.637Z" transform="translate(6.191 0.227)"/><path class="g" d="M39.521,55.665,39.33,49.32,41.36,53.6Z" transform="translate(2.469 3.097)"/><path class="f" d="M50.063,70.81c14.007,7.95,36.623,7.79,50.545-.351,6.961-4.092,10.4-9.405,10.351-14.7h0l-.191-6.717-1.137,1.265c-1.615-3.316-4.687-6.377-9.235-9.012-14-7.96-36.612-7.8-50.5.351S36.066,62.85,50.063,70.81ZM70.255,58.939c3.645,2.126,3.667,5.473,0,7.588a14.507,14.507,0,0,1-13.146.1c-3.645-2.126-3.677-5.473,0-7.588a14.507,14.507,0,0,1,13.189-.1Z" transform="translate(2.481 2.225)"/><path class="h" d="M49.894,64.838c14,7.96,36.612,7.8,50.5-.351s13.816-21.255-.2-29.162-36.623-7.79-50.513.351S35.887,56.889,49.894,64.838ZM70.087,52.967c3.645,2.126,3.667,5.473,0,7.6a14.539,14.539,0,0,1-13.04.085c-3.645-2.126-3.667-5.463,0-7.588a14.539,14.539,0,0,1,13.072-.1Z" transform="translate(2.468 1.852)"/><path class="a" d="M66.113,67.142a14.3,14.3,0,0,1-8.906-1.318c-2.614-1.488-3.358-3.645-2.242-5.537l-6.377-5.038-6.6-7.439c-5.1,7.439-2.412,16.26,8.045,22.212a44.1,44.1,0,0,0,15.7,4.984Z" transform="translate(2.478 3.002)"/><path class="c" d="M49.894,64.838a42.4,42.4,0,0,0,10.532,4.134A56.476,56.476,0,0,0,68.8,70.418c11.138,1.063,23.03-.9,31.6-5.93,13.89-8.151,13.816-21.255-.2-29.162s-36.623-7.79-50.513.351S35.887,56.889,49.894,64.838ZM70.087,52.967c3.645,2.126,3.667,5.473,0,7.6a14.539,14.539,0,0,1-13.04.085c-3.645-2.126-3.667-5.463,0-7.588a14.539,14.539,0,0,1,13.072-.1Z" transform="translate(2.468 1.852)"/><path class="f" d="M43,50.262c.68-4.07,3.7-8.035,9.065-11.191C64.415,31.823,84.533,31.632,97,38.763c6.185,3.518,9.32,8.151,9.384,12.817.893-5.314-2.189-10.755-9.235-14.762-12.466-7.078-32.584-6.929-44.944.319C46.04,40.782,43,45.533,43,50.262Z" transform="translate(2.699 1.985)"/><path class="f" d="M35.988,106.934a13.986,13.986,0,0,1-7-1.807c-5.016-2.848-7.811-8.566-7.864-16.112-.128-13.763,9.437-30.618,21.351-37.59,6.5-3.815,12.849-4.347,17.844-1.5a14.092,14.092,0,0,1,5.2,5.2A21.649,21.649,0,0,1,68.2,66.06c.1,13.752-9.48,30.618-21.351,37.579a21.68,21.68,0,0,1-10.861,3.295ZM53.322,53.179a16.685,16.685,0,0,0-8.29,2.6c-10.49,6.153-18.949,21.043-18.864,33.2,0,5.665,1.924,9.831,5.314,11.754s7.928,1.456,12.817-1.456C54.778,93.128,63.238,78.239,63.153,66.06a16.824,16.824,0,0,0-1.977-8.4h0a9.044,9.044,0,0,0-3.326-3.295,9.15,9.15,0,0,0-4.527-1.19Z" transform="translate(1.326 3.022)"/><path class="c" d="M57.722,63.685l9.969,2.444,1.435-7.439A14.539,14.539,0,0,1,56,58.818Z" transform="translate(3.515 3.685)"/><path class="c" d="M49.27,62.825A42.4,42.4,0,0,0,59.8,66.959,56.476,56.476,0,0,0,68.177,68.4c11.138,1.063,23.03-.9,31.6-5.93l-40.6-.914Z" transform="translate(3.093 3.865)"/><path class="f" d="M63.9,67.7a59.345,59.345,0,0,1-8.81-2.264v6.228a48.728,48.728,0,0,0,8.7,2.232C73.061,75.122,63.9,67.7,63.9,67.7Z" transform="translate(3.458 4.109)"/><path class="a" d="M57.752,66.291a40.387,40.387,0,0,1-5.739-2.126c-5.431-2.54,1.435,6.876,1.435,6.876s1.849.733,4.251,1.488Z" transform="translate(3.134 4.002)"/><path class="a" d="M154.69,169.129,136.92,180.586l-8.64-1.4L149.4,168.97Z" transform="translate(8.052 10.607)"/><path class="d" d="M133.867,223.6s-5.112-2.583-8.258,1.265-7.631,12.913-7.769,19.045,4.846,5.707,7.811,4.251,11.627-14.018,12.158-16.484-.627-5.792-1.456-6.44S133.867,223.6,133.867,223.6Z" transform="translate(7.396 13.983)"/><path class="a" d="M134.572,222.462l.234,5.314a2.986,2.986,0,0,1-1.488,2.753,5.888,5.888,0,0,1-3.953.616c-3.858-.616-4.2-1.722-4.474-7.014S134.572,222.462,134.572,222.462Z" transform="translate(7.839 13.889)"/><path class="d" d="M116.247,214.05s-5.123-2.583-8.258,1.265-7.641,12.913-7.779,19.034,4.846,5.718,7.822,4.251,11.627-14.018,12.147-16.484-.616-5.792-1.445-6.44S116.247,214.05,116.247,214.05Z" transform="translate(6.29 13.384)"/><path class="a" d="M116.922,212.872l.234,5.314a3,3,0,0,1-1.5,2.753,5.834,5.834,0,0,1-3.943.616c-3.858-.616-4.251-1.722-4.474-7.025S116.922,212.872,116.922,212.872Z" transform="translate(6.731 13.286)"/><path class="c" d="M163.054,121.816c-1.52-24.646-26.686,3.624-26.686,3.624l-17.217,16.887-15.516,17a15.261,15.261,0,0,0-3.847,12.286l6.27,47.825a4.687,4.687,0,0,0,4.708,4.081,15.2,15.2,0,0,0,2.327-.2,5.835,5.835,0,0,0,5.186-6.2l-1.148-44.689,32.574-19.64S164.564,146.461,163.054,121.816Z" transform="translate(6.255 7.014)"/><path class="a" d="M128.535,161l-4.634-1.7c-.106,0-7.886,7.514-7.811,10.149l3.486,1.116,8.757-8.5Z" transform="translate(7.287 10)"/><path class="a" d="M153.571,170.427s19.364-11.053,21.68-15.686c.9-1.817,2.317-3.709-3.337-6.451l-25.815,18.4,1.116,6.377Z" transform="translate(9.17 9.309)"/><path class="c" d="M180.675,130.765c-1.615-24.635-26.686,3.624-26.686,3.624l-17.227,16.887-15.516,17a15.3,15.3,0,0,0-3.847,12.286l6.27,47.825a4.708,4.708,0,0,0,4.719,4.081,16.536,16.536,0,0,0,2.317-.2,5.835,5.835,0,0,0,5.186-6.2l-1.148-44.7,32.584-19.64S182.152,153.286,180.675,130.765Z" transform="translate(7.361 7.576)"/><path class="a" d="M165.092,55.791c19.13,7.907,18.7,19.194,18.7,19.194s-3.741,41.352-2.466,68.974c.531,11.542-61.343,12.424-52.076-18.375,10.883-36.325,6.8-65.722,11.892-70.143S160.161,53.74,165.092,55.791Z" transform="translate(8.054 3.332)"/><path class="i" d="M169.836,65.584c-1,3.868-6.079,5.92-11.34,4.559s-8.725-5.6-7.726-9.469,6.079-5.92,11.34-4.559S170.835,61.748,169.836,65.584Z" transform="translate(9.453 3.497)"/><path class="e" d="M161.769,71.566a13.922,13.922,0,0,1-3.443-.446,12.689,12.689,0,0,1-6.7-4.092,7.322,7.322,0,0,1-1.69-6.494c1.063-4.347,6.706-6.7,12.445-5.208a12.69,12.69,0,0,1,6.7,4.092,7.312,7.312,0,0,1,1.69,6.483C169.878,69.376,166.148,71.566,161.769,71.566ZM158.9,56.687c-3.55,0-6.515,1.647-7.195,4.251a5.537,5.537,0,0,0,1.339,4.878,10.872,10.872,0,0,0,5.728,3.486c4.772,1.222,9.363-.521,10.234-3.911a5.537,5.537,0,0,0-1.339-4.867,10.808,10.808,0,0,0-5.728-3.39,12.307,12.307,0,0,0-3.04-.436Z" transform="translate(9.4 3.446)"/><path class="i" d="M155.73,55.045a45.9,45.9,0,0,1-.159,6.812c-.106,1.9,6.547,3.677,8.268,1.955s1.063-3.507,1.445-9.979S155.73,55.045,155.73,55.045Z" transform="translate(9.765 3.218)"/><path class="j" d="M165.284,53.68s-1.637,5.994-9.724,8.3l.128-5.452Z" transform="translate(9.764 3.371)"/><path class="i" d="M171.238,39.991a14.687,14.687,0,1,1-17.9-10.553,14.687,14.687,0,0,1,17.9,10.553Z" transform="translate(8.933 1.82)"/><path class="k" d="M160.393,43.507s-8.088,3.465-13.688,3.507-4.368-4.655-4.368-4.655L158.99,40Z" transform="translate(8.927 2.512)"/><path class="l" d="M145.413,45.473s7.046-2.986,13.221-1.743a6.515,6.515,0,0,1,3.741,2.221,2.221,2.221,0,0,0,1.127.818c1.063.244,2.891-4.3,5.027-4.4s3.55,1.4,1.807,4.2-1.158,5.92-.361,6.377,9.331-6.079,1.817-20.979-26.622-6.855-29.6-3.858c0,0-3.125,2.731-5.675.308C136.518,28.416,133.67,49.777,145.413,45.473Z" transform="translate(8.55 1.46)"/><path class="i" d="M171.883,102.5v11.17a4.549,4.549,0,0,1-1.477,3.369L147.45,137.961l2.6,3.985,30.321-21.978a6.185,6.185,0,0,0,2.508-4.347l2.051-19.491Z" transform="translate(9.255 6.035)"/><path class="a" d="M179.636,68.43S186.6,78.9,189.2,106.466c0,0-11.892,3.858-18.652,1.669S179.636,68.43,179.636,68.43Z" transform="translate(10.6 4.297)"/><path class="f" d="M169.42,80.89s-2.731,14.592-2.88,21.447a4.368,4.368,0,0,0,2.88,4.251h0Z" transform="translate(10.453 5.079)"/><path class="d" d="M167.668,150.34l-5.069-.67-32.755-18.907a4.538,4.538,0,0,0-4.092.17l-23.211,13.391-3.071-.4v3.061h0a1.222,1.222,0,0,0,.712,1.063l37.112,21.425a4.559,4.559,0,0,0,4.1-.17l25.273-14.581a1.658,1.658,0,0,0,1-1.382h0Z" transform="translate(6.244 8.184)"/><path class="f" d="M143.065,138l-2.327-1.339H115.156l-12.615,7.269-3.071-.4v3.061h0a1.222,1.222,0,0,0,.712,1.063l37.112,21.425a3.954,3.954,0,0,0,2.126.4Z" transform="translate(6.244 8.579)"/><path class="a" d="M100.83,143.3l-1.36-.181v3.061h0a1.222,1.222,0,0,0,.712,1.063l.648.372Z" transform="translate(6.244 8.985)"/><path class="m" d="M135.42,167.66a4.782,4.782,0,0,0,3.475-.223v-5.2H135.42Z" transform="translate(8.5 10.185)"/><path class="e" d="M137.294,166.6l-37.112-21.425c-1.063-.606-.925-1.669.287-2.37l25.283-14.592a4.57,4.57,0,0,1,4.092-.17l37.144,21.436c1.063.606.914,1.669-.3,2.359l-25.273,14.592a4.559,4.559,0,0,1-4.124.17Z" transform="translate(6.243 8.013)"/><path class="c" d="M136.325,162.887,105.5,145.075c-.871-.51-.765-1.392.244-1.966l13.55-7.62a3.752,3.752,0,0,1,3.4-.138l30.82,17.812c.871.51.765,1.392-.244,1.977l-13.54,7.609A3.773,3.773,0,0,1,136.325,162.887Z" transform="translate(6.585 8.476)"/><path class="i" d="M125.585,127.6l-.383,2.561a18.929,18.929,0,0,0,.159,6.568l.457,2.253a3.188,3.188,0,0,0,2.551,2.5h0a1.754,1.754,0,0,0,2.051-1.53l.606-5.473s1.4,1.839,2.126,1.839-.755-5.484-2.285-8.587S125.585,127.6,125.585,127.6Z" transform="translate(7.845 7.93)"/><path class="i" d="M138.276,89.673l-3.985,7.886a15.462,15.462,0,0,0-1.637,5.983L130.932,130.5l-5.239-.128-2.381-30.31a10.713,10.713,0,0,1,.138-2.8L126.171,82Z" transform="translate(7.738 5.148)"/><path class="d" d="M136.217,169.613l-3.061-4.07-32.723-18.949a4.549,4.549,0,0,1-1.9-3.635V116.167l-1.881-2.455,1.764-1.063h0a1.19,1.19,0,0,1,1.286.074l37.069,21.564a4.58,4.58,0,0,1,1.9,3.635v29.184a1.668,1.668,0,0,1-.7,1.562h0Z" transform="translate(6.067 7.062)"/><path class="f" d="M113.581,154.246l-2.317-1.35L98.511,130.727v-14.56l-1.881-2.455,1.764-1.063h0a1.19,1.19,0,0,1,1.286.074l37.091,21.564a3.986,3.986,0,0,1,1.4,1.637Z" transform="translate(6.065 7.062)"/><path class="a" d="M97.459,114.795l-.829-1.063,1.764-1.063h0a1.19,1.19,0,0,1,1.286.074l.648.372Z" transform="translate(6.065 7.064)"/><path class="m" d="M134.945,133.18A4.8,4.8,0,0,1,136.5,136.3l-3.624,2.126-1.743-3.018Z" transform="translate(8.231 8.361)"/><path class="a" d="M135.043,135.2,97.952,113.724c-1.063-.606-1.9,0-1.9,1.435v29.184a4.538,4.538,0,0,0,1.892,3.635l37.091,21.479c1.063.606,1.9,0,1.9-1.435V138.837A4.506,4.506,0,0,0,135.043,135.2Z" transform="translate(6.029 7.125)"/><path class="i" d="M150.62,139.475l-.6,1.233a8.237,8.237,0,0,1-3.1,3.443l-3.635,2.264a3.677,3.677,0,0,1-3.762.1l-.128-.085a2.221,2.221,0,0,1-.319-3.4l3.858-3.964s-2.126,1.658-2.774,1c-.446-.489,2.126-2.88,4.049-2.954a7.78,7.78,0,0,0,3.847-1.615Z" transform="translate(8.689 8.506)"/><path class="a" d="M141.879,55.23s-14.114,15.357-19.8,29.449a28.8,28.8,0,0,0,16.632,12.1C150.53,100.2,141.879,55.23,141.879,55.23Z" transform="translate(7.663 3.468)"/><path class="f" d="M135.413,94.775l2.3-22.095-5.4,20.7a32.128,32.128,0,0,0,3.1,1.392Z" transform="translate(8.305 4.563)"/><path class="e" d="M150.884,52.373,147.09,51.31a9.225,9.225,0,0,0,4.453,3.582c2.646.723,3.061-1.52,3.061-1.52Z" transform="translate(9.233 3.222)"/><path class="c" d="M83.558,21.625A10.628,10.628,0,1,1,94.185,11,10.628,10.628,0,0,1,83.558,21.625Zm0-18.928a8.311,8.311,0,1,0,8.3,8.3,8.311,8.311,0,0,0-8.3-8.3Z" transform="translate(4.578 0.025)"/><path class="a" d="M285.445,93.29a7.535,7.535,0,1,1,7.535-7.535,7.535,7.535,0,0,1-7.535,7.535Zm0-12.753a5.218,5.218,0,1,0,5.218,5.218,5.218,5.218,0,0,0-5.218-5.218Z" transform="translate(17.444 4.911)"/><path class="a" d="M52.9,221.376,47.79,210.983l10.394-5.123,5.112,10.4Zm-2.009-9.342,3.061,6.238,6.238-3.071-3.061-6.238Z" transform="translate(3 12.923)"/><path class="a" d="M194.922,69.706,189.81,59.3l10.4-5.112,5.112,10.426Zm-2.009-9.342,3.071,6.249,6.238-3.061-3.071-6.238Z" transform="translate(11.914 3.403)"/><rect class="a" width="5.324" height="5.324" transform="translate(37.15 173.221) rotate(-26.18)"/><path class="n" d="M217.7,16.675,189.249.266a1.424,1.424,0,0,0-1.467-.117h0L185.03,1.743l1.934.712V23.126a5.516,5.516,0,0,0,2.285,4.368L216.414,43.17V45.6L219.2,44h0a2.04,2.04,0,0,0,.765-1.828V21.043a5.452,5.452,0,0,0-2.264-4.368Z" transform="translate(11.614 0.001)"/><path class="o" d="M214.943,45.423,186.525,29.014a5.463,5.463,0,0,1-2.285-4.368V3.518c0-1.69,1.063-2.455,2.285-1.732L214.943,18.2a5.484,5.484,0,0,1,2.285,4.368V43.691C217.228,45.381,216.208,46.146,214.943,45.423Z" transform="translate(11.564 0.096)"/><path class="e" d="M195.606,20.753c0,1.222-.85,1.722-1.913,1.063A4.251,4.251,0,0,1,191.78,18.5c0-1.222.85-1.722,1.913-1.063a4.251,4.251,0,0,1,1.913,3.316Z" transform="translate(12.038 1.078)"/><path class="e" d="M201.077,23.913c0,1.222-.861,1.711-1.913,1.063a4.251,4.251,0,0,1-1.924-3.326c0-1.222.861-1.711,1.924-1.063A4.251,4.251,0,0,1,201.077,23.913Z" transform="translate(12.38 1.276)"/><path class="e" d="M206.547,27.063c0,1.222-.861,1.722-1.924,1.063a4.251,4.251,0,0,1-1.913-3.316c0-1.222.85-1.722,1.913-1.063A4.251,4.251,0,0,1,206.547,27.063Z" transform="translate(12.724 1.474)"/><path class="a" d="M32.821,185.806,4.945,169.715A1.424,1.424,0,0,0,3.51,169.6h0L.8,171.1l1.9.691V192.14a5.388,5.388,0,0,0,2.242,4.251L31.588,211.78v2.381l2.731-1.573h0a2,2,0,0,0,.755-1.785V190.089a5.314,5.314,0,0,0-2.253-4.283Z" transform="translate(0.05 10.638)"/><path class="c" d="M30.119,214.012l-27.876-16.1A5.314,5.314,0,0,1,0,193.66V172.936c0-1.658,1-2.413,2.242-1.7l27.876,16.09a5.378,5.378,0,0,1,2.242,4.251V212.3C32.361,213.97,31.362,214.724,30.119,214.012Z" transform="translate(0 10.733)"/><path class="e" d="M11.152,189.808c0,1.2-.84,1.69-1.881,1.063a4.134,4.134,0,0,1-1.881-3.252c0-1.2.84-1.69,1.881-1.063A4.134,4.134,0,0,1,11.152,189.808Z" transform="translate(0.464 11.694)"/><path class="e" d="M16.512,192.909c0,1.2-.84,1.679-1.881,1.063a4.251,4.251,0,0,1-1.881-3.263c0-1.2.85-1.679,1.881-1.063A4.166,4.166,0,0,1,16.512,192.909Z" transform="translate(0.8 11.888)"/><path class="e" d="M21.882,196c0,1.2-.85,1.69-1.881,1.063a4.134,4.134,0,0,1-1.881-3.252c0-1.2.84-1.69,1.881-1.063A4.155,4.155,0,0,1,21.882,196Z" transform="translate(1.137 12.082)"/></g></g></svg>