<svg xmlns="http://www.w3.org/2000/svg" width="15.282" height="20.376" viewBox="0 0 15.282 20.376"><defs><style>.a{fill:#696969;}</style></defs><path class="a" d="M13.372,204.735H1.91A1.913,1.913,0,0,1,0,202.825V193.91A1.913,1.913,0,0,1,1.91,192H13.372a1.913,1.913,0,0,1,1.91,1.91v8.915A1.913,1.913,0,0,1,13.372,204.735ZM1.91,193.274a.637.637,0,0,0-.637.637v8.915a.637.637,0,0,0,.637.637H13.372a.637.637,0,0,0,.637-.637V193.91a.637.637,0,0,0-.637-.637Zm0,0" transform="translate(0 -184.359)"/><path class="a" d="M73.551,8.915a.637.637,0,0,1-.637-.637V5.094a3.821,3.821,0,1,0-7.641,0V8.278a.637.637,0,0,1-1.274,0V5.094a5.094,5.094,0,0,1,10.188,0V8.278A.637.637,0,0,1,73.551,8.915Zm0,0" transform="translate(-61.453)"/></svg>