<svg xmlns="http://www.w3.org/2000/svg" xmlns:xlink="http://www.w3.org/1999/xlink" width="369.742" height="270.308" viewBox="0 0 369.742 270.308"><defs><style>.a{fill:#3ebfdf;opacity:0.25;}.a,.aa,.ab,.ac,.ad,.ae,.af,.ag,.ah,.ai,.aj,.ak,.al,.am,.an,.ao,.ap,.aq,.ar,.as,.at,.au,.av,.aw,.ax,.ay,.az,.ba,.bb,.bc,.bd,.be,.bf,.bg,.bh,.bi,.bj,.bk,.bl,.bm,.bn,.bo,.bp,.bq,.br,.bs,.bt,.bu,.bv,.bw,.bx,.by,.bz,.c,.ca,.cb,.cc,.cd,.ce,.e,.f,.h,.j,.k,.l,.m,.n,.o,.p,.q,.r,.s,.t,.u,.v,.w,.x,.y,.z{fill-rule:evenodd;}.b{fill:#d1edfb;}.aq,.ar,.at,.b,.c,.m,.n,.p{opacity:0.5;}.c,.cb{fill:#31accb;}.d,.f{fill:#f3447e;}.e{fill:#3999f4;}.g,.q{fill:#c2e5f6;}.h{fill:url(#a);}.i{fill:#0b436a;}.j{fill:#071a3b;}.k{fill:#105b90;}.l{fill:url(#b);}.at,.av,.az,.bc,.bu,.m,.n,.p{mix-blend-mode:multiply;isolation:isolate;}.m{fill:url(#c);}.n{fill:url(#d);}.o{fill:url(#e);}.p{fill:url(#f);}.r{fill:url(#g);}.s{fill:#11639d;}.t{fill:url(#h);}.u{fill:#1c87d5;}.v{fill:#a1d5f1;}.w{fill:#cfecfa;}.x{fill:#b2dcf1;}.y{fill:#a5d6ef;}.z{fill:#c3e4f4;}.aa{fill:#64b8d5;}.ab{fill:#94cfe5;}.ac{fill:url(#i);}.ad{fill:#daeafa;}.ae{fill:url(#j);}.af{fill:url(#k);}.ag{fill:#e7a376;}.ah{fill:url(#l);}.ai{fill:#f0b186;}.aj,.bt{fill:#fff;}.ak{fill:#dff4ff;}.al{fill:#effaff;}.am,.ar{fill:#c8e8f8;}.an{fill:#000002;}.ao{fill:#171e29;}.ap{fill:#2b374a;}.aq{fill:#566e93;}.as{fill:url(#m);}.at{fill:#1c8eaa;}.au{fill:url(#o);}.av,.az,.bc{opacity:0.3;}.av{fill:url(#q);}.aw{fill:#b7e0f5;}.ax,.az{fill:#04304f;}.ay{fill:url(#r);}.ba{fill:url(#s);}.bb{fill:url(#t);}.bc{fill:#1466a0;}.bd{fill:url(#u);}.be{fill:url(#v);}.bf{fill:url(#w);}.bg{fill:#2faac8;}.bh{fill:#38251b;}.bi{fill:#422d22;}.bj{fill:#ea9f6f;}.bk{fill:#aa6f48;}.bl{fill:url(#x);}.bm{fill:url(#y);}.bn{fill:#1a68af;}.bo{fill:#298ae5;}.bp{fill:#237cce;}.bq{fill:#12549d;}.br{fill:url(#z);}.bs{fill:url(#aa);}.bt,.bu{opacity:0.7;}.bu{fill:url(#ab);}.bv{fill:url(#ac);}.bw{fill:#1863a8;}.bx{fill:#2989e3;}.by{fill:#14548e;}.bz{fill:url(#ad);}.ca{fill:#269cba;}.cc{fill:#fbddc4;}.cd{fill:#1989a5;}.ce{fill:#f6c8a2;}</style><linearGradient id="a" x1="0.759" y1="0.404" x2="0.248" y2="0.505" gradientUnits="objectBoundingBox"><stop offset="0" stop-color="#105b91"/><stop offset="1" stop-color="#0a3c5f"/></linearGradient><linearGradient id="b" x1="0.413" y1="0.303" x2="0.684" y2="0.884" gradientUnits="objectBoundingBox"><stop offset="0" stop-color="#31adcc"/><stop offset="0.995" stop-color="#198aa6"/></linearGradient><linearGradient id="c" x1="0.606" y1="0.308" x2="0.368" y2="0.824" xlink:href="#b"/><linearGradient id="d" x1="0.252" y1="0.083" x2="0.762" y2="0.892" xlink:href="#b"/><linearGradient id="e" x1="0.632" y1="0.285" x2="0.362" y2="0.87" xlink:href="#b"/><linearGradient id="f" x1="0.585" y1="0.283" x2="0.31" y2="0.878" xlink:href="#b"/><linearGradient id="g" x1="1.048" y1="0.476" x2="0.367" y2="0.506" xlink:href="#a"/><linearGradient id="h" x1="0.537" y1="0.31" x2="0.457" y2="0.72" xlink:href="#b"/><linearGradient id="i" x1="0.554" y1="0.384" x2="0.446" y2="0.615" gradientUnits="objectBoundingBox"><stop offset="0" stop-color="#2981e6"/><stop offset="1" stop-color="#1761a6"/></linearGradient><linearGradient id="j" x1="0.631" y1="0.259" x2="0.319" y2="0.758" gradientUnits="objectBoundingBox"><stop offset="0" stop-color="#632e40"/><stop offset="1" stop-color="#48202d"/></linearGradient><linearGradient id="k" x1="0.518" y1="0.328" x2="0.453" y2="0.751" xlink:href="#i"/><linearGradient id="l" x1="0.168" y1="0.434" x2="0.917" y2="0.544" xlink:href="#i"/><linearGradient id="m" x1="0.516" y1="0.293" x2="0.473" y2="0.736" xlink:href="#b"/><linearGradient id="o" x1="0.518" y1="0.328" x2="0.453" y2="0.751" xlink:href="#i"/><linearGradient id="q" x1="0.717" y1="0.511" x2="-0.425" y2="0.487" xlink:href="#b"/><linearGradient id="r" x1="1.034" y1="0.391" x2="-0.039" y2="0.595" xlink:href="#a"/><linearGradient id="s" x1="0.771" y1="0.462" x2="0.178" y2="0.512" xlink:href="#a"/><linearGradient id="t" x1="0.439" y1="-0.089" x2="0.577" y2="0.785" xlink:href="#b"/><linearGradient id="u" x1="0.385" y1="0.241" x2="0.703" y2="0.908" gradientUnits="objectBoundingBox"><stop offset="0" stop-color="#d2eefc"/><stop offset="1" stop-color="#c3e6f7"/></linearGradient><linearGradient id="v" x1="1.253" y1="0.128" x2="0.448" y2="0.397" xlink:href="#u"/><linearGradient id="w" x1="0.629" y1="0.155" x2="0.326" y2="1.041" xlink:href="#a"/><linearGradient id="x" x1="0.278" y1="0.251" x2="0.736" y2="0.907" xlink:href="#u"/><linearGradient id="y" x1="0.294" y1="0.204" x2="0.805" y2="0.934" xlink:href="#u"/><linearGradient id="z" x1="0.259" y1="0.295" x2="0.589" y2="0.984" xlink:href="#u"/><linearGradient id="aa" x1="0.327" y1="0.228" x2="0.671" y2="0.95" xlink:href="#u"/><linearGradient id="ab" x1="0.626" y1="0.477" x2="0.28" y2="0.592" xlink:href="#u"/><linearGradient id="ac" x1="0.249" y1="0.239" x2="0.598" y2="0.969" xlink:href="#u"/><linearGradient id="ad" x1="0.674" y1="-0.05" x2="0.453" y2="0.648" xlink:href="#i"/></defs><g transform="translate(-1785.228 -180.714)"><g transform="translate(1785.228 180.714)"><path class="a" d="M2971.717,222.79c-.549.775-1.525.966-2.811.641a4.3,4.3,0,0,0-1.768-2.336c-.922-.532-1.691-.257-1.888.628-.292-.2-.584-.389-.895-.6-.456-.33-.917-.657-1.409-1.038a29.591,29.591,0,0,0,1.4-6.466,15.686,15.686,0,0,0,4.8-2.222c.308.6.6,1.2.865,1.785,2.068,4.519,2.8,8.071,1.7,9.605ZM2955.929,197.4c-2.751-1.588-4.991-.311-5,2.85a10.954,10.954,0,0,0,4.968,8.614c2.746,1.586,4.987.309,5-2.862a10.954,10.954,0,0,0-4.963-8.6Zm6.336,22.147a28.419,28.419,0,0,0,1.3-5.724,20.437,20.437,0,0,1-3.316.528,23.9,23.9,0,0,1-3.492.069,60.907,60.907,0,0,0,5.506,5.126Zm-.773,1.817c-1.478,2.89-3.477,4.045-5.639,2.8-2.18-1.259-4.154-4.708-5.61-9.291-.18-.589-.36-1.187-.522-1.811a25.893,25.893,0,0,0,6.159,1.292,62.333,62.333,0,0,0,6.143,5.81c-.166.435-.348.824-.531,1.2Zm-12.008-9.2a55.419,55.419,0,0,1-1.28-7.214c1.043,1.453,2.144,2.91,3.316,4.372q1.751,2.165,3.48,4.079a25.963,25.963,0,0,1-5.516-1.237Zm-2.092-.841c.457.2.918.4,1.4.582a57.509,57.509,0,0,1-1.348-8.055,77.79,77.79,0,0,1-4.771-7.746,7.676,7.676,0,0,0-.872.781,6.9,6.9,0,0,0-1.765,7.6,12.594,12.594,0,0,0,5.692,5.97q.8.461,1.668.864Zm-.06-8.626a72.2,72.2,0,0,1-4.205-6.955,14.487,14.487,0,0,1,4.23-2.07c-.119,1.389-.189,2.858-.194,4.4s.058,3.1.169,4.625Zm-5.524-9.614c.264.586.556,1.173.865,1.784a15.241,15.241,0,0,1,4.8-2.221,30.666,30.666,0,0,1,1.389-6.474c-.478-.373-.939-.7-1.394-1.03-.156-.1-.323-.222-.479-.327-.056,1.14-.9,1.6-1.941,1a4.307,4.307,0,0,1-1.9-2.925c-1.41-.411-2.471-.238-3.058.579-1.083,1.527-.352,5.1,1.717,9.614Zm7.748-6.367a59.325,59.325,0,0,1,5.506,5.121,25.259,25.259,0,0,0-3.505.067,23.643,23.643,0,0,0-3.317.523,28.406,28.406,0,0,1,1.316-5.711Zm.773-1.818c-.183.379-.366.768-.531,1.2a61.4,61.4,0,0,1,6.147,5.813,25.317,25.317,0,0,1,6.156,1.29c-.163-.624-.343-1.222-.524-1.811-1.456-4.584-3.442-8.041-5.6-9.289-2.18-1.258-4.167-.1-5.644,2.794Zm12.009,9.2a55.3,55.3,0,0,1,1.266,7.2q-1.544-2.162-3.3-4.36c-1.167-1.449-2.326-2.806-3.48-4.085a25.4,25.4,0,0,1,5.517,1.243Zm1.625,13.676c.005-1.782-.074-3.562-.238-5.308-1.166-1.673-2.422-3.361-3.77-5.022s-2.689-3.24-4.012-4.662a25.086,25.086,0,0,0-4.029,0,20.113,20.113,0,0,0-3.786.674,46.529,46.529,0,0,0-.268,5.016c-.005,1.8.075,3.576.238,5.323,1.153,1.66,2.422,3.342,3.758,5.015,1.353,1.679,2.7,3.242,4.03,4.666a23.667,23.667,0,0,0,4.024-.017,21.976,21.976,0,0,0,3.787-.658,46.753,46.753,0,0,0,.267-5.031Zm.514-4.217c.124,1.53.187,3.075.182,4.618s-.075,3.021-.208,4.408a14.309,14.309,0,0,0,4.244-2.078,74.082,74.082,0,0,0-4.218-6.948Zm-.047-8.618c-.457-.2-.918-.4-1.41-.589a55.94,55.94,0,0,1,1.362,8.062,78.728,78.728,0,0,1,4.771,7.746,9.271,9.271,0,0,0,.871-.782,6.882,6.882,0,0,0,1.753-7.61,12.528,12.528,0,0,0-5.679-5.963q-.8-.461-1.668-.864Zm5.181,16.1a7.521,7.521,0,0,0,.97-.873,7.6,7.6,0,0,0,1.812-8.443,13.991,13.991,0,0,0-6.282-6.706q-.837-.484-1.746-.9c-.5-.241-1.032-.464-1.564-.659-.194-.693-.387-1.366-.594-2.03-1.565-4.938-3.765-8.7-6.233-10.12s-4.685-.217-6.274,2.9c-.209.424-.419.864-.6,1.339-.531-.418-1.058-.8-1.562-1.147-.208-.151-.43-.294-.625-.422a4.373,4.373,0,0,0-1.852-2.614c-.953-.55-1.734-.226-1.905.715-1.677-.534-2.947-.349-3.663.649-1.234,1.745-.477,5.634,1.758,10.5.292.652.614,1.317.962,1.988a9.174,9.174,0,0,0-.97.883,7.614,7.614,0,0,0-1.812,8.448,13.966,13.966,0,0,0,6.268,6.7q.844.487,1.76.907c.505.246,1.033.454,1.565.664.18.68.387,1.365.593,2.015,1.566,4.932,3.765,8.71,6.238,10.137s4.681.194,6.269-2.917c.21-.409.406-.862.6-1.325.531.4,1.058.805,1.563,1.142.306.228.611.419.921.613a4.322,4.322,0,0,0,1.917,3.065c1.077.622,1.943.112,1.948-1.236,1.467.368,2.6.139,3.259-.765,1.233-1.745.477-5.634-1.759-10.509C2970.281,212.391,2969.96,211.721,2969.611,211.04Z" transform="translate(-2730.712 -180.714)"/><g transform="translate(0 17.301)"><circle class="b" cx="11.35" cy="11.35" r="11.35" transform="translate(337.638 228.805) rotate(-45)"/><path class="c" d="M1793.632,1198.979a8.4,8.4,0,1,1-8.4,8.4A8.4,8.4,0,0,1,1793.632,1198.979Z" transform="translate(-1785.228 -1032.562)"/><circle class="d" cx="7.295" cy="7.295" r="7.295" transform="translate(321.79 14.327) rotate(-79.099)"/><path class="e" d="M2195.911,872.006a4.65,4.65,0,1,1-4.65,4.65A4.65,4.65,0,0,1,2195.911,872.006Z" transform="translate(-2118.003 -764.582)"/><path class="f" d="M2231.868,1537.243a4.65,4.65,0,1,1-4.65,4.65A4.65,4.65,0,0,1,2231.868,1537.243Z" transform="translate(-2147.473 -1309.795)"/></g></g><g transform="translate(1878.289 187.496)"><g transform="translate(203.35 40.907)"><g transform="translate(15.29 110.764)"><ellipse class="g" cx="17.552" cy="10.167" rx="17.552" ry="10.167" transform="translate(2.931 35.194)"/><path class="h" d="M3512.891,1124.756c.865-.013,37.164-.122,40.49-.112-.007.75-.113,1.549-.18,2.3a72.556,72.556,0,0,1-1.548,9.974l-.019.074a42.444,42.444,0,0,1-8.414,17.655,25.822,25.822,0,0,1-4.839,4.717,11.186,11.186,0,0,1-10.151.1,5.84,5.84,0,0,1-.976-.677,36.95,36.95,0,0,1-5.742-6.311,44.1,44.1,0,0,1-6.906-15.876A83.761,83.761,0,0,1,3512.891,1124.756Z" transform="translate(-3512.881 -1112.79)"/><ellipse class="i" cx="19.418" cy="10.955" rx="19.418" ry="10.955" transform="translate(0.841 0.496)"/><path class="j" d="M3539.513,1078.288c-10.408,0-18.847,4.761-18.847,10.633,0,2.866,6.824,7.906,18.9,8.462s18.4-5.93,18.792-8.462C3558.361,1083.049,3549.922,1078.288,3539.513,1078.288Z" transform="translate(-3519.254 -1074.798)"/><path class="k" d="M3533.1,1058.944c-11.189,0-20.26,5.254-20.26,11.735s9.071,11.735,20.26,11.735,20.26-5.254,20.26-11.735-9.071-11.735-20.26-11.735Zm0,.818c10.409,0,18.847,4.761,18.847,10.633s-8.438,10.633-18.847,10.633-18.847-4.761-18.847-10.633S3522.689,1059.762,3533.1,1059.762Z" transform="translate(-3512.839 -1058.944)"/><path class="k" d="M3515.188,1136.512c1.911,5.332,10.065,9.338,19.835,9.338,9.524,0,17.512-3.807,19.68-8.936l.016-.038-.366-.035-1.114-.2-.039.006c-2.189,4.5-9.5,7.813-18.177,7.813-8.873,0-16.314-3.46-18.316-8.119l-1.06.049-.46.119Zm39.591.217-.341-.159.355.122Z" transform="translate(-3514.764 -1122.38)"/></g><g transform="translate(0 37.961)"><path class="l" d="M3440.376,655.43a64.059,64.059,0,0,0-7.112,10.026c.6,1.076,1.134,2.179,1.745,3.271-1.164-.512-2.017-.887-2.866-1.166-5.146,10.265-5.081,19.574-1.528,27.857a18.269,18.269,0,0,0,7.012,1.743q-2.531,1.062-5.059,2.131c4.44,7.558,12.344,11.443,9.933,23.465-.093.467-.184.938-.265,1.413q3.1,2,6.2,4a22.158,22.158,0,0,0-6.545.161c.18,5.6,3.61,11.488,18.653,16.915,1.467-.118,5.09-1.884,5.848-2.927-.665-5.213.9-14.34,2.241-21.511,1.09-5.836.725-9.928-.572-13.072-1.871.927-3.8,1.6-5.723,2.437a21.768,21.768,0,0,0,2.91-6.805c-4.72-5.183-12.581-7.845-18-16.46-.327-.519-.662-1.066-1-1.639-1.058.454-2.131.853-3.2,1.322a21.633,21.633,0,0,0,1.836-3.761C3441.358,676.149,3438.114,666.708,3440.376,655.43Z" transform="translate(-3428.093 -655.43)"/><path class="m" d="M3504.553,889.976a17.234,17.234,0,0,1,.6,9.976c-.094.467-.184.938-.265,1.413q3.1,2,6.2,4a22.167,22.167,0,0,0-6.544.161c.18,5.6,3.61,11.488,18.653,16.915,1.467-.117,5.09-1.883,5.848-2.926-.665-5.213.9-14.34,2.241-21.511,1.09-5.836.724-9.927-.573-13.072-1.871.927-3.8,1.6-5.722,2.437a21.782,21.782,0,0,0,2.909-6.805c-2.978-3.27-7.206-5.537-11.282-8.928C3514.514,878.632,3508.427,882.955,3504.553,889.976Z" transform="translate(-3490.75 -832.626)"/><path class="n" d="M3450.313,737.582a24.064,24.064,0,0,1-7.914-6.008c2.455,1.562,4.5,3.168,6.813,4a25.387,25.387,0,0,1-1.136-2.652c-3.03-8.384-1.121-15.815,1.243-23.842-1.568,6.378-2.924,12.445-1.668,18.757.6-1.968,1.817-3.453,3.419-5.8-1.232,2.864-2.576,5.355-2.769,8.347q.334,1.069.781,2.15a30.806,30.806,0,0,0,6.317,9.258c-.257-2.563.5-4.721,1.6-7.686-.458,2.774-.937,6.148-.3,9.039,3.471,3.541,7.142,6.795,9.588,11.055,1.271-5.46.959-4.469,2.2-9.868.419,5.908.23,8.16-.988,12.31a21.011,21.011,0,0,1,1.5,5.914c.589,5.5.552,8.923.9,11.89,3.086-6.242,1.667-3.309,5.8-12.176-.385,5.17-.22,5.741-5.089,15.8.782,2.657,2.255,5.507,5.22,9.838a15.07,15.07,0,0,1-2.846,1.17c-5.411-8.078-5.425-11.214-5.518-17.279-2.352-4.117-5.344-8.775-8.548-11.9,2.925,1.111,5.233,2.77,8.43,7.679-.069-1.448-.181-3.06-.376-4.892-.519-4.9-2.84-8.612-5.741-12.071a44.976,44.976,0,0,0-9.36-2.953,16.9,16.9,0,0,1,7.178.485C3456.036,744.875,3452.756,741.629,3450.313,737.582Z" transform="translate(-3439.818 -699.404)"/></g><g transform="translate(19.305)"><path class="o" d="M3571.435,445.033a89.474,89.474,0,0,0-14.368,9.392c.233,1.706.359,3.412.594,5.142-1.25-1.26-2.166-2.184-3.126-2.981C3542.6,467.293,3537.924,479.422,3538.3,492c3.014,2.98,3.886,3.574,8.222,5.85q-3.832.087-7.664.182c1.906,12.091,10.189,21.18.909,35.57-.36.559-.719,1.125-1.067,1.7q3,4.187,6.006,8.366c-4.092-1.931-5.7-2.594-8.586-3.137-2.627,7.362-1.184,16.773,15.589,31.516,1.966.6,7.577.155,9.1-.813,1.8-7.114,8.5-18.173,13.91-26.806,4.4-7.026,6.017-12.53,5.94-17.279-2.906.248-5.756.129-8.682.24,3.425-2.8,5.093-4.154,7.261-7.355-3.483-9.148-12.337-16.627-14.969-30.591-.158-.841-.314-1.723-.46-2.641-1.607.05-3.2.019-4.834.081a30.265,30.265,0,0,0,4.309-3.948C3562.118,472.458,3562.729,458.532,3571.435,445.033Z" transform="translate(-3535.092 -445.033)"/><path class="p" d="M3582.7,544.409a33.587,33.587,0,0,1-7.212-11.853c2.391,3.284,4.226,6.417,6.805,8.687a34.991,34.991,0,0,1-.12-4.027c.35-12.444,6.628-21.124,13.805-30.344-5.3,7.487-10.163,14.677-11.757,23.521,1.784-2.252,4.126-3.559,7.41-5.8-3.064,3.091-6.086,5.641-7.866,9.43q-.112,1.559-.085,3.193a43.043,43.043,0,0,0,3.474,15.259c.977-3.462,3.063-5.878,6.012-9.168-2.015,3.371-4.36,7.51-5.016,11.591,2.7,6.376,5.807,12.481,6.807,19.267,4.443-6.445,3.531-5.317,7.9-11.7-2.476,7.891-3.873,10.721-7.577,15.491a29.3,29.3,0,0,1-1.073,8.451c-2.047,7.449-3.845,11.877-4.915,15.909,7.2-6.532,3.857-3.446,13.768-12.853-3.144,6.522-3.221,7.347-14.695,17.934-.342,3.852.115,8.309,1.754,15.452a21,21,0,0,1-4.3.065c-2.9-13.263-1.315-17.346,1.665-25.274-.95-6.552-2.457-14.135-5.023-19.83,3.233,2.939,5.383,6.275,7.028,14.288.651-1.917,1.329-4.069,2.013-6.549,1.828-6.627.713-12.643-1.289-18.621a62.784,62.784,0,0,0-10.652-8.623,23.608,23.608,0,0,1,9.08,4.3C3586.409,556.81,3583.807,550.915,3582.7,544.409Z" transform="translate(-3568.202 -495.714)"/></g></g><g transform="translate(40.78)"><path class="q" d="M2705.119,1146.959,2537.6,1050.647c-1.3-.621-3.155-1.133-4.478-.474-1.2.6-3.189,1.841-4.066,2.323-.667.366-2.98,1.7-1.539,2.516,4.239,2.4,164.051,94.356,168.356,96.791a6.107,6.107,0,0,0,3.255.57,8.472,8.472,0,0,0,3.526-.974l2.111-1.183a2.5,2.5,0,0,0,1.478-1.749C2706.288,1147.887,2705.915,1147.34,2705.119,1146.959Z" transform="translate(-2527.049 -899.832)"/><g transform="translate(3.026)"><path class="r" d="M2722.272,305.131c6.752,3.89,12.048,13.3,12.027,20.83l-.288,128.134c-.01,3.8-1.355,6.476-3.522,7.735l-3.084,1.856c-12.784-6.007-7.7-62.746-8.5-81.588l3.622-49.295c-3.045-5.321-14.76-9.965-12.026-20.831l-113.314-61.905L2562.967,226.8h0c.147-.877-.923-5.2.03-5.778,1.064-.646,2.115-1.291,3.159-1.9,2.674-1.581,6.081-.6,8.583.84h0Z" transform="translate(-2559.208 -218.303)"/><path class="s" d="M2544.105,237.31c.021-7.651,5.44-10.747,12.1-6.9l147.532,85.177c6.657,3.845,12.047,13.18,12.026,20.831l-.286,128.134c-.022,7.65-5.448,10.743-12.106,6.9l-147.531-85.177c-6.666-3.849-12.048-13.181-12.027-20.831Z" transform="translate(-2543.817 -226.871)"/><path class="t" d="M2557.042,255.472c.021-7.444,5.292-10.455,11.776-6.711l143.524,82.863c6.477,3.74,11.721,12.822,11.7,20.266l-.279,124.653c-.021,7.443-5.3,10.451-11.777,6.711l-143.524-82.864c-6.485-3.744-11.721-12.823-11.7-20.265Z" transform="translate(-2554.427 -241.946)"/><g transform="translate(0.541 1.886)"><path class="s" d="M2546.815,234.659c1.143-5.666,6.021-7.615,11.852-4.247L2706.2,315.588c5.824,3.364,10.679,10.931,11.788,17.9Z" transform="translate(-2546.815 -228.757)"/><g transform="translate(5.831 3.36)"><path class="u" d="M2644.054,287.161c-.994-.574-1.8-.113-1.8,1.028a3.953,3.953,0,0,0,1.793,3.107c.993.573,1.8.113,1.8-1.03A3.952,3.952,0,0,0,2644.054,287.161Z" transform="translate(-2630.861 -279.782)"/><path class="u" d="M2611.109,265.66c-.994-.574-1.8-.113-1.8,1.029a3.953,3.953,0,0,0,1.793,3.107c.993.573,1.8.113,1.8-1.03A3.955,3.955,0,0,0,2611.109,265.66Z" transform="translate(-2603.86 -262.16)"/><path class="u" d="M2580.938,247.627c-.994-.574-1.8-.113-1.805,1.028a3.952,3.952,0,0,0,1.794,3.107c.993.573,1.8.113,1.8-1.03A3.952,3.952,0,0,0,2580.938,247.627Z" transform="translate(-2579.133 -247.38)"/></g></g><g transform="translate(10.436 23.383)"><g transform="translate(2.461 39.152)"><path class="v" d="M2707.375,628.015c-.015,5.049-3.59,7.091-7.987,4.552-46.7-26.786-29.46-16.639-76.156-43.422-4.394-2.537-7.949-8.7-7.935-13.745l.189-4.856c.014-5.048,3.594-7.088,7.988-4.552,46.7,26.786,29.46,16.638,76.155,43.423,4.4,2.539,7.949,8.7,7.935,13.744Z" transform="translate(-2615.297 -564.901)"/><g transform="translate(21.115 12.439)"><path class="w" d="M2733.226,674.6l63.3,36.521c.5.288.9.06.9-.516l.006-2.044a1.986,1.986,0,0,0-.9-1.555l-63.3-36.521c-.5-.288-.9-.05-.905.515l0,2.044A1.967,1.967,0,0,0,2733.226,674.6Z" transform="translate(-2732.329 -663.775)"/><path class="w" d="M2735.024,638.085l63.3,36.521c.5.288.9.06.9-.516l.006-2.044a1.987,1.987,0,0,0-.9-1.555l-63.3-36.521c-.5-.288-.9-.051-.9.515l0,2.044A1.967,1.967,0,0,0,2735.024,638.085Z" transform="translate(-2733.802 -633.847)"/><path class="w" d="M2733.226,711.347l36.135,20.788c.5.288.9.06.9-.516l.006-2.044a1.987,1.987,0,0,0-.9-1.555l-36.134-20.788c-.5-.288-.9-.05-.905.515l0,2.044A1.967,1.967,0,0,0,2733.226,711.347Z" transform="translate(-2732.329 -693.891)"/></g><g transform="translate(1.926 2.784)"><path class="w" d="M2634.773,601.828c4.875,2.815,8.84.554,8.856-5.048s-3.923-12.425-8.8-15.24-8.84-.555-8.856,5.048S2629.9,599.013,2634.773,601.828Z" transform="translate(-2625.974 -580.329)"/><g transform="translate(2.791 3.943)"><path class="x" d="M2649.429,659.073a4.242,4.242,0,0,0,.579,2.422,10.482,10.482,0,0,0,2.24,2.5c.558.51.978.9,1.3,1.229-1.589.82-3.735.647-6.1-.716a17.794,17.794,0,0,1-6.008-6.195,12.979,12.979,0,0,1,1.37.274c1.086.256,1.82.374,2.263.074.337-.228.567-.662.562-1.626,0-.073,0-.147,0-.226.925.671,1.407,1.039,1.891,1.337A13.525,13.525,0,0,0,2649.429,659.073Z" transform="translate(-2641.443 -646.956)"/><path class="v" d="M2650.1,668.494a11.449,11.449,0,0,0,2.146,2.34c.558.509.978.9,1.3,1.229-1.589.82-3.735.647-6.1-.716a17.792,17.792,0,0,1-6.008-6.194,13.013,13.013,0,0,1,1.37.273,4.165,4.165,0,0,0,2.056.178,5.668,5.668,0,0,0,2.73,3.105C2648.789,669.37,2649.945,669.477,2650.1,668.494Z" transform="translate(-2641.443 -653.791)"/><path class="y" d="M2664.391,670.85c-.471,1.183-1.764,1.036-3.054.234a7.52,7.52,0,0,1-3.046-3.715c.173-.049.346-.1.518-.148a6.849,6.849,0,0,0,2.354,2.693c1.1.775,2.242,1.114,2.647.077C2664.006,670.277,2664.2,670.564,2664.391,670.85Z" transform="translate(-2655.252 -655.486)"/><path class="z" d="M2688.288,649.743c.014-.028.03-.055.045-.078.165-.249.369-.216.481-.037a1.341,1.341,0,0,1-.136,1.412c-.075.338-.005.726-.309.676-.148-.024-.235-.194-.369-.629q.031-.68.059-1.363Z" transform="translate(-2679.601 -640.951)"/><path class="z" d="M2657.93,631.133c-.014-.044-.029-.089-.044-.13-.166-.441-.371-.645-.486-.6-.377.162,0,1.1.134,1.573.073.424,0,.732.308,1.034.148.146.235.076.371-.2q-.026-.714-.054-1.432C2658.082,631.3,2658.007,631.215,2657.93,631.133Z" transform="translate(-2654.386 -625.308)"/><path class="z" d="M2662.1,622.766c-.153-.221-.284-.469-.488-.8a8.333,8.333,0,0,1-.825-1.374,5.565,5.565,0,0,1-.163-1.514c-.017-.364-.155-.78-.221-1.271a9.023,9.023,0,0,1-.061-.97c-.005-.275,0-.554.011-.817.094-1.841.46-3.443,2.45-2.318h0l.094.055.1.063c.019.013.036.023.053.033s.038.022.055.03l.1.056.094.054h0c1.984,1.176,2.342,3.195,2.428,5.133.012.277.015.558.009.826a7.117,7.117,0,0,1-.065.894c-.068.412-.209.667-.228,1.01a3.7,3.7,0,0,1-.167,1.321c-.142.262-.564.3-.826.424a3.688,3.688,0,0,1-.489.242.71.71,0,0,1-.362,0,4.526,4.526,0,0,1-1.143-.657A2.6,2.6,0,0,1,2662.1,622.766Z" transform="translate(-2656.933 -611.314)"/><g transform="translate(2.572)"><path class="v" d="M2659.448,607.933c.659.552.683.352,1.007.561.2.126.3.364.639.507a4.07,4.07,0,0,0,.625,2.023q0,.315.012.627c.01.327.015.612.018.858.006.587-.125,1.069-.08,1.556a8.341,8.341,0,0,0,.341-1.575,2.389,2.389,0,0,1,.011-.432,2.005,2.005,0,0,0-.016-.909c.015-.168.15-.094.171-.2s-.056-.275-.053-.395.091-.183.072-.315q-.04-.259-.08-.522a4.581,4.581,0,0,0,.421-.505c-.051-.063-.1-.127-.153-.192.2-.573-.13-.7-.129-.935,0-.168.127-.092.187,0a2.093,2.093,0,0,1,.185.509c.11-.938-.555-1.507-1.222-2.148a2.26,2.26,0,0,0-1.8-1.7c-.655-1.125-1.515-1.22-2.141-.94-.605-.09-1-.194-1.15,1.007a4.785,4.785,0,0,1,.026-.93,2.376,2.376,0,0,0-.111,1,3.218,3.218,0,0,1-.394-.7,3.639,3.639,0,0,0,.186,1l-.188-.214a3.592,3.592,0,0,0,.161.769c-.1-.095-.191-.192-.287-.288a3.1,3.1,0,0,0,.469,1.487,8.626,8.626,0,0,0,.09,1.1c.057.3.1.488.156.706s.117.406.14.559a3.424,3.424,0,0,1,.072.4,3.583,3.583,0,0,0,.275,1.786c-.018-.83-.186-.815-.161-1.8a9.878,9.878,0,0,1-.025-1.147c.024-.24.16-.212.163-.484.01-.9-.281-1.629.282-1.336.626.325.824.8,1.3.483C2659.007,607.789,2659.143,607.839,2659.448,607.933Z" transform="translate(-2655.699 -603.398)"/><path class="v" d="M2658.78,604c-.129-.909.018-1.251.32-1.254.23,0,.525.152,1.041.65a.745.745,0,0,0-.369.114c.012-.058.023-.116.034-.175-.619.515-.567,1.135-.794,2.072-.062.254-.094.293.059.311.038,0,.073.1.118.162.086.122.169.239.371.065a2.368,2.368,0,0,0,.619-1.044c.141-.488.2-.943.567-.886a1.76,1.76,0,0,1,1.067.872,1.945,1.945,0,0,0-1.672-1.492,2.746,2.746,0,0,0-.963-1.009c-.76-.359-1.1.605-.914,1.785.04.257.114.527.206.976.03.145.062.327.095.52a.288.288,0,0,0,.3-.231,4.409,4.409,0,0,0-.088-1.437Zm2.832,3.64c.726.4.966-.374,1-1.069,0,.3.471.763-.126,1.175.228-.173.241-.118.419-.03-.318.166-.212.524-.643.411a.749.749,0,0,1,.3.846c-.081-.384-.276-.424-.512-.725.33.44.658.955.388,1.269.047-.5-.349-.552-.617-1.276.091.469.493,1.009.591,1.514a3.251,3.251,0,0,1-.8-2.115Zm1.434-.9c-.546-1.042-.55.4-1,.747-.218.17-.564.1-1.187-.6a1.935,1.935,0,0,1-1.02-.547c.543.185,1.2-.679,1.727-.665-.064.076-.128.15-.194.222a1.166,1.166,0,0,1,1.035-.009,1.343,1.343,0,0,1,.639.855Zm-3.667-.634c.69-.057.871-1.206,1.578-1.4.3-.083.672.041,1.293.672-.887-.568-1.207-.464-1.819.217.718-.626,1.64-.613,2.526.733-.6-.779-1.232-.961-1.693-.775-.714.289-1.009.985-1.885.553Zm-3.026-2.486a3.732,3.732,0,0,0,.559,1.32,3.352,3.352,0,0,1-.678-.785,2.334,2.334,0,0,0,.612,1.013.838.838,0,0,1-.453-.35.706.706,0,0,1,.313.979c.217-.486.469-.4.582-.725-.345-.075-.726-.943-.935-1.451Zm1.182-1.329c-.7.483-.624,1.979,0,2.8-.823-.237-.994-1.356-1.2-2.134a9.217,9.217,0,0,1,.524,1.183c-.163-.9.086-1.882.672-1.854Zm.876,3.174c.015.193-.134.05-.218-.018-.1.1-.266-.059-.427-.309-.431-.274-.585-.851-.613-1.692a1.069,1.069,0,0,1,.58-1.139c.008.043.017.086.026.127.046-.02.093-.04.139-.062l.069.224c.265-.472.437-.45.916-.357-.494-.011-.708.43-.757.964A16.918,16.918,0,0,0,2658.41,605.462Z" transform="translate(-2656.137 -602.182)"/></g></g></g></g><g transform="translate(2.461 71.029)"><path class="aa" d="M2707.375,804.694c-.015,5.049-3.59,7.092-7.987,4.552-46.7-26.786-29.46-16.639-76.156-43.422-4.394-2.537-7.949-8.7-7.935-13.745l.189-4.855c.014-5.048,3.594-7.088,7.988-4.552,46.7,26.786,29.46,16.638,76.155,43.423,4.4,2.539,7.949,8.7,7.935,13.744Z" transform="translate(-2615.297 -741.581)"/><path class="ab" d="M2634.773,778.508c4.875,2.815,8.84.554,8.856-5.048s-3.923-12.425-8.8-15.241-8.84-.555-8.856,5.047S2629.9,775.692,2634.773,778.508Z" transform="translate(-2624.047 -754.225)"/></g><g transform="translate(2.461 4.37)"><path class="ac" d="M2707.375,435.24c-.015,5.049-3.59,7.091-7.987,4.552-46.7-26.786-29.46-16.639-76.156-43.422-4.394-2.537-7.949-8.7-7.935-13.745l.189-4.856c.014-5.048,3.594-7.088,7.988-4.552,46.7,26.786,29.46,16.638,76.155,43.423,4.4,2.539,7.949,8.7,7.935,13.744Z" transform="translate(-2615.297 -372.126)"/><g transform="translate(1.926 2.784)"><path class="ad" d="M2634.773,409.055c4.875,2.816,8.84.554,8.856-5.047s-3.923-12.425-8.8-15.241-8.84-.555-8.856,5.048S2629.9,406.239,2634.773,409.055Z" transform="translate(-2625.974 -387.556)"/><g transform="translate(2.975 5.294)"><path class="ae" d="M2646.987,416.95c-.127,0-.258.013-.4.028-2.47-.095-2.918,2.447-3.081,3.981-.243,2.284.087,3.482-.449,4.492a5.458,5.458,0,0,0-.6,1.759,20.82,20.82,0,0,0,1.687,2.321c.455-1.694,2.194-3.249,2.2-4.565a2,2,0,0,1,.9-1.045l.529.578c.232.606.3.957.51,1.388.48.981.5,2.178,1.389,1.6,4.427-2.909,3.315-11.239-2.613-10.55Z" transform="translate(-2642.465 -416.9)"/><g transform="translate(0.563 5.578)"><path class="af" d="M2652.681,464.646a3.461,3.461,0,0,0-.187.444,10.22,10.22,0,0,1-1.649-.775,17.058,17.058,0,0,1-5.262-5.044,2.584,2.584,0,0,1,.393-.876,8.588,8.588,0,0,0,.877-1.549,7.072,7.072,0,0,1,.195-.887,1.476,1.476,0,0,1,.237-.484c.322-.46.9-.693,1.906-.271a22.6,22.6,0,0,1,3.145,1.537,12.873,12.873,0,0,1,2.208,1.793,1.544,1.544,0,0,1,.281.818C2654.934,460.937,2653.373,463.273,2652.681,464.646Z" transform="translate(-2645.583 -453.69)"/><path class="ag" d="M2666.221,447.818a13.036,13.036,0,0,0,.148,2.893,1.638,1.638,0,0,1-2.378-.4c.067-.415.145-.8.189-1.223Z" transform="translate(-2660.67 -447.818)"/><path class="ah" d="M2684.56,475.2a26.469,26.469,0,0,1-.391,5.953,7.2,7.2,0,0,1-2.5-.566,28.2,28.2,0,0,1-.012-3.692c.182-1.325.83-2.807,1.784-2.842C2684.13,474.03,2684.453,474.536,2684.56,475.2Z" transform="translate(-2675.099 -469.321)"/></g><path class="ai" d="M2655,425.9a3.029,3.029,0,0,0-.5,2.077.89.89,0,0,1-.071.5,1.959,1.959,0,0,0-.148,1.7c.172.628.16.956.374,1.171a1.249,1.249,0,0,0,.828.29,5,5,0,0,0,2.122-.653c.422-.231.406-.389.584-.79.6-.519.21-.9.01-.936-.573-.111-.666.549-1.006.7C2657.25,428.786,2655.039,426.827,2655,425.9Z" transform="translate(-2652.044 -424.273)"/></g></g><g transform="translate(21.115 12.44)"><path class="aj" d="M2733.226,481.826l63.3,36.521c.5.289.9.06.9-.516l.006-2.044a1.986,1.986,0,0,0-.9-1.555l-63.3-36.521c-.5-.288-.9-.05-.905.515l0,2.044A1.967,1.967,0,0,0,2733.226,481.826Z" transform="translate(-2732.329 -471)"/><path class="aj" d="M2735.024,445.31l63.3,36.521c.5.288.9.06.9-.516l.006-2.044a1.986,1.986,0,0,0-.9-1.555l-63.3-36.521c-.5-.288-.9-.051-.9.515l0,2.044A1.968,1.968,0,0,0,2735.024,445.31Z" transform="translate(-2733.802 -441.072)"/><path class="aj" d="M2733.226,518.571l36.135,20.788c.5.288.9.06.9-.516l.006-2.044a1.987,1.987,0,0,0-.9-1.555l-36.134-20.788c-.5-.288-.9-.05-.905.515l0,2.044A1.967,1.967,0,0,0,2733.226,518.571Z" transform="translate(-2732.329 -501.116)"/></g></g><path class="aj" d="M2645.025,368.026c2.528,1.434,4.41,2.492,6.3,3.556l2.126,1.2-.419.748-2.126-1.2c-1.724-.97-3.44-1.936-6.3-3.559l.422-.744Zm11.282,6.366,5.059,2.872-.422.744-5.059-2.872.422-.744Zm7.194,4.089,3.4,1.94-.422.744-3.4-1.94.422-.744Zm5.5,3.141,2.264,1.294-.426.744-2.264-1.294.426-.744Zm8.308,4.753-.425.744,12.995,7.448a20.854,20.854,0,0,1,9.436,16.332l-.23,5.92a8.3,8.3,0,0,1-.958,4.138,4.417,4.417,0,0,1-4,2.3,8.41,8.41,0,0,1-4.113-1.273c-28.377-16.276-33.708-19.275-39.036-22.272-5.306-2.985-10.609-5.968-39.028-22.267a20.868,20.868,0,0,1-9.437-16.332l.23-5.919a8.286,8.286,0,0,1,.956-4.133,4.423,4.423,0,0,1,4.008-2.3,8.4,8.4,0,0,1,4.11,1.271c7.846,4.5,13.93,7.986,18.739,10.736,4.593,2.627,8.156,4.659,11.091,6.328l.422-.744c-2.556-1.453-6.062-3.454-11.087-6.328-4.809-2.751-10.894-6.236-18.74-10.736a9.243,9.243,0,0,0-4.536-1.382,5.263,5.263,0,0,0-4.748,2.727,9.134,9.134,0,0,0-1.071,4.548l-.23,5.92a21.719,21.719,0,0,0,9.866,17.09c28.38,16.277,33.706,19.273,39.034,22.271,5.3,2.984,10.614,5.97,39.029,22.268a9.25,9.25,0,0,0,4.538,1.384,5.262,5.262,0,0,0,4.744-2.726,9.136,9.136,0,0,0,1.072-4.55l.23-5.921a21.692,21.692,0,0,0-9.866-17.088Z" transform="translate(-2601.659 -347.903)"/><g transform="translate(2.461 103.611)"><path class="aa" d="M2707.375,985.281c-.015,5.049-3.59,7.092-7.987,4.552-46.7-26.786-29.46-16.639-76.156-43.422-4.394-2.537-7.949-8.7-7.935-13.745l.189-4.856c.014-5.048,3.594-7.088,7.988-4.552,46.7,26.786,29.46,16.638,76.155,43.423,4.4,2.539,7.949,8.7,7.935,13.744Z" transform="translate(-2615.297 -922.168)"/><path class="ab" d="M2634.773,959.095c4.875,2.815,8.84.554,8.856-5.048s-3.923-12.425-8.8-15.24-8.84-.555-8.856,5.048S2629.9,956.279,2634.773,959.095Z" transform="translate(-2624.047 -934.813)"/></g></g><g transform="translate(110.958 79.139)"><path class="aj" d="M3179.319,663.51l3.953,2.3-.429.741-3.953-2.3.429-.741Zm5.684,3.3,2.67,1.551-.429.741-2.671-1.551.429-.741Zm4.245,2.465,2.07,1.2-.429.741-2.069-1.2.429-.741Zm3.249,1.887,1.461.849-.429.741-1.461-.849.429-.741Zm2.544,1.478,1.2.695-.429.741-1.2-.695.429-.741Zm6.146,3.569-.429.741,3.643,2.116a23.595,23.595,0,0,1,10.675,18.489l-.26,111.1a9.419,9.419,0,0,1-1.087,4.693,5.045,5.045,0,0,1-4.569,2.622,9.531,9.531,0,0,1-4.663-1.439l-34.163-19.841a23.577,23.577,0,0,1-10.676-18.489l.26-111.1a9.413,9.413,0,0,1,1.087-4.7,5.036,5.036,0,0,1,4.564-2.621,9.543,9.543,0,0,1,4.666,1.441l.429-.741a10.384,10.384,0,0,0-5.1-1.555,5.886,5.886,0,0,0-5.3,3.047,10.261,10.261,0,0,0-1.2,5.124l-.26,111.1a24.423,24.423,0,0,0,11.1,19.23l34.165,19.84a10.378,10.378,0,0,0,5.09,1.553,5.885,5.885,0,0,0,5.31-3.049,10.249,10.249,0,0,0,1.2-5.12l.26-111.1a24.448,24.448,0,0,0-11.1-19.23l-3.643-2.116Zm-29.36-17.05,5.795,3.365-.429.741L3171.4,659.9Z" transform="translate(-3158.804 -656.931)"/><g transform="translate(1.539 2.46)"><path class="ak" d="M3167.577,677.782c.018-6.454,4.589-9.065,10.21-5.819l31.83,18.484c5.615,3.243,10.162,11.118,10.143,17.571l-.241,108.081c-.019,6.453-4.6,9.061-10.212,5.819l-31.829-18.485c-5.622-3.246-10.163-11.118-10.144-17.571Z" transform="translate(-3167.334 -670.567)"/><g transform="translate(1.265 2.787)"><g transform="translate(0.189 23.316)"><path class="al" d="M3175.622,822.092c.017-6.126,4.355-8.6,9.691-5.523l30.212,17.545c5.33,3.078,9.645,10.552,9.628,16.678l-.229,14.312c-.017,6.125-4.361,8.6-9.692,5.523l-30.211-17.545c-5.336-3.081-9.646-10.553-9.629-16.678Z" transform="translate(-3175.391 -815.245)"/><g transform="translate(3.72 4.343)"><path class="am" d="M3196.91,843.555l26.159,15.192c.5.288.9.06.9-.516l.007-2.044a1.99,1.99,0,0,0-.9-1.555l-26.159-15.193c-.5-.288-.9-.051-.9.515l0,2.044A1.969,1.969,0,0,0,3196.91,843.555Z" transform="translate(-3196.012 -839.318)"/><path class="am" d="M3368.163,942.886l9.616,5.542c.5.289.9.06.9-.516l.006-2.044a1.988,1.988,0,0,0-.9-1.555l-9.615-5.542c-.5-.288-.9-.051-.905.515l0,2.044A1.97,1.97,0,0,0,3368.163,942.886Z" transform="translate(-3336.368 -920.727)"/><g transform="translate(0 6.731)"><path class="am" d="M3196.91,880.863l31.431,18.355c.5.288.9.06.9-.516l.007-2.044a1.99,1.99,0,0,0-.9-1.555l-31.431-18.355c-.5-.288-.9-.051-.9.515l0,2.044A1.969,1.969,0,0,0,3196.91,880.863Z" transform="translate(-3196.012 -876.626)"/><path class="am" d="M3396.031,996.376l4.588,2.622c.5.289.9.06.9-.516l.007-2.044a1.99,1.99,0,0,0-.9-1.555l-4.588-2.622c-.5-.288-.9-.051-.9.514l0,2.044A1.967,1.967,0,0,0,3396.031,996.376Z" transform="translate(-3359.208 -971.297)"/></g><g transform="translate(0 13.462)"><path class="am" d="M3196.91,918.171l28.836,16.733c.5.288.9.06.9-.515l.006-2.044a1.986,1.986,0,0,0-.9-1.555l-28.836-16.734c-.5-.288-.9-.051-.9.515l0,2.044A1.968,1.968,0,0,0,3196.91,918.171Z" transform="translate(-3196.012 -913.934)"/><path class="am" d="M3379.85,1024.244l7.507,4.325c.5.289.9.06.9-.516l.006-2.044a1.99,1.99,0,0,0-.9-1.555l-7.506-4.325c-.5-.288-.9-.05-.9.515l-.005,2.044A1.967,1.967,0,0,0,3379.85,1024.244Z" transform="translate(-3345.946 -1000.869)"/></g><g transform="translate(0 20.194)"><path class="am" d="M3196.91,955.479l30.376,17.625c.5.288.9.06.9-.515l.007-2.044a1.989,1.989,0,0,0-.9-1.555l-30.376-17.625c-.5-.288-.9-.051-.9.515l0,2.044A1.969,1.969,0,0,0,3196.91,955.479Z" transform="translate(-3196.012 -951.242)"/><path class="am" d="M3387.49,1065.6l6.128,3.6c.5.289.9.06.9-.516l.006-2.044a1.989,1.989,0,0,0-.9-1.555l-6.128-3.6c-.5-.288-.9-.051-.9.514l-.006,2.045A1.968,1.968,0,0,0,3387.49,1065.6Z" transform="translate(-3352.207 -1041.493)"/></g></g></g><g transform="translate(0.889 60.588)"><path class="an" d="M3202.95,1066.787l-11.736-6.444-11.942-6.56q.051-8.03.1-16.027.049-7.979.1-15.928l11.873,6.792,11.668,6.672q-.014,7.834-.028,15.7T3202.95,1066.787Z" transform="translate(-3179.272 -1021.828)"/><path class="ao" d="M3193.081,1082.276c.749,3.315,1.644,6.046,2.782,7.573,2.783,3.734,6.9,3.755,7.852-1.229.808-4.21.7-10.952.608-14.183-.207-7.117-5.9-11.507-10.161-6.921-3.759-9.9-8.117-5.951-9.532-.2-1.2,4.86-.148,16.284,4.012,18.12C3189.827,1085.96,3192.128,1083.839,3193.081,1082.276Z" transform="translate(-3183.283 -1054.314)"/><path class="ap" d="M3198.179,1089.912c1.192,3.8,2.357,6.807,3.654,8.426a4.375,4.375,0,0,0,4.1,1.844c2.6-.282,2.356-12.444,2.23-16.777-.185-6.38-6.681-9.625-9.572-4.794-3.37-8.874-6.812-6.745-8.081-1.588-1.031,4.189-.193,13.932,3.248,16.079C3194.916,1093.825,3196.514,1091.2,3198.179,1089.912Z" transform="translate(-3188.145 -1063.401)"/><path class="aq" d="M3179.272,1053.783q.051-8.03.1-16.027.049-7.979.1-15.928l11.873,6.792,11.668,6.672C3192.95,1039.145,3186.759,1045.686,3179.272,1053.783Z" transform="translate(-3179.272 -1021.828)"/><g transform="translate(25.26 15.394)"><path class="aj" d="M3320.3,1111.98l21.015,12.155c.57.329,1.029.068,1.03-.588l.007-2.33a2.264,2.264,0,0,0-1.023-1.772l-21.014-12.155c-.569-.328-1.029-.058-1.031.587l-.005,2.33A2.243,2.243,0,0,0,3320.3,1111.98Z" transform="translate(-3319.278 -1107.15)"/><path class="aj" d="M3320.3,1157.6l21.015,12.155c.57.329,1.029.068,1.03-.588l.007-2.33a2.264,2.264,0,0,0-1.023-1.772l-21.014-12.155c-.569-.328-1.029-.058-1.031.587l-.005,2.33A2.243,2.243,0,0,0,3320.3,1157.6Z" transform="translate(-3319.278 -1144.541)"/><path class="aj" d="M3320.3,1203.225l21.015,12.155c.57.329,1.029.068,1.03-.588l.007-2.33a2.265,2.265,0,0,0-1.023-1.772l-21.014-12.155c-.569-.328-1.029-.057-1.031.587l-.005,2.33A2.242,2.242,0,0,0,3320.3,1203.225Z" transform="translate(-3319.278 -1181.932)"/><path class="aj" d="M3320.3,1248.848l12.581,7.37c.57.329,1.028.068,1.03-.587l.007-2.33a2.267,2.267,0,0,0-1.024-1.772l-12.58-7.37c-.569-.328-1.029-.058-1.031.586l-.005,2.33A2.243,2.243,0,0,0,3320.3,1248.848Z" transform="translate(-3319.278 -1219.324)"/></g></g><g transform="translate(0.244 97.4)"><path class="aj" d="M3175.847,1230.335c.011-4,2.847-5.625,6.335-3.61l36,20.649a13.885,13.885,0,0,1,6.294,10.9l-.15,12.6c-.011,4-2.851,5.622-6.336,3.61l-36-20.649a13.877,13.877,0,0,1-6.294-10.9Z" transform="translate(-3175.697 -1225.859)"/><g transform="translate(0 9.769)"><path class="ar" d="M3224.353,1301.869l.014,10.06-.04,3.324c-.007,2.444-1.068,4-2.686,4.382l-43.386-24.99a13.375,13.375,0,0,1-2.559-7.333l.075-6.269c1.767-.8,3.716-1.514,5.841-.632a5.9,5.9,0,0,1,.645.322c1.8,1.034,3.21,3.025,4.7,5.064s3.049,4.108,5.135,5.309c.154.09.312.174.473.253,4.75,2.347,6.045-2.525,9.56-.61.069.037.136.075.2.113a11.091,11.091,0,0,1,3.368,3.3,12.582,12.582,0,0,0,3.924,3.61q.223.129.463.255c3.53,1.859,7.225-2.937,11.964-2.4A11.8,11.8,0,0,1,3224.353,1301.869Z" transform="translate(-3175.697 -1280.005)"/><path class="as" d="M3224.151,1320.72l.188.11.014.084.014,10.061-.04,3.323c-.011,4-2.851,5.622-6.336,3.61l-36-20.649a13.876,13.876,0,0,1-6.294-10.9l.02-1.668c1.8-.868,3.5-2.1,5.892-1.031a6.1,6.1,0,0,1,.548.28c1.847,1.064,3.357,3.14,4.938,5.262s3.234,4.274,5.373,5.505c.133.077.269.15.405.219,4.75,2.421,5.969-2.743,9.25-1.368a4.5,4.5,0,0,1,.486.241c1.369.789,2.125,2.206,3.046,3.716a11.149,11.149,0,0,0,4.01,4.273c.083.047.166.094.252.139C3214.234,1324.235,3216.446,1316.282,3224.151,1320.72Z" transform="translate(-3175.697 -1299.051)"/><g transform="translate(0.037 6.705)"><path class="at" d="M3176.263,1321.372c.218-.114.434-.232.65-.35,1.547-.846,3.1-1.694,5.17-.718.094.045.186.09.273.137s.188.105.277.159c1.787,1.088,3.259,3.179,4.783,5.347l.16.227c.79,1.119,1.6,2.251,2.475,3.262a12.535,12.535,0,0,0,2.892,2.559l.2.119.2.113c2.638,1.419,4.187.355,5.6-.619,1.134-.78,2.187-1.5,3.646-.858q.133.06.25.121c.083.043.162.088.238.134a8.9,8.9,0,0,1,2.782,3.47l.271.474a17.216,17.216,0,0,0,1.59,2.4,9.424,9.424,0,0,0,2.414,2.117l.251.147c1.824,1.03,3.275.11,4.923-.937,2.25-1.425,4.867-3.086,9.312-.382l.2.123v.908l-.2-.129c-4.436-2.7-7.051-1.04-9.294.384-1.653,1.048-3.107,1.97-4.941.935l-.251-.147a9.435,9.435,0,0,1-2.421-2.124,17.232,17.232,0,0,1-1.6-2.407l-.271-.474a8.852,8.852,0,0,0-2.768-3.451c-.078-.047-.158-.092-.237-.134s-.167-.084-.248-.12c-1.453-.642-2.5.078-3.632.854-1.422.977-2.974,2.044-5.619.621l-.2-.112-.2-.119a12.581,12.581,0,0,1-2.9-2.566c-.88-1.017-1.689-2.148-2.479-3.266l-.16-.227c-1.522-2.164-2.991-4.252-4.773-5.335-.093-.057-.184-.11-.274-.159s-.183-.1-.272-.138c-2.065-.972-3.613-.126-5.156.719-.168.092-.336.184-.505.274C3176.354,1321.922,3176.3,1321.646,3176.263,1321.372Z" transform="translate(-3176.198 -1319.38)"/><path class="aj" d="M3175.9,1318.606c.24-.116.477-.238.714-.36,1.547-.794,3.1-1.59,5.17-.664.094.042.186.086.272.13s.188.1.276.15c1.788,1.03,3.259,3.005,4.783,5.052l.16.214c.79,1.057,1.6,2.125,2.475,3.081a12.372,12.372,0,0,0,2.892,2.419l.2.113.2.107c2.638,1.344,4.186.346,5.6-.568,1.134-.733,2.187-1.411,3.646-.8q.133.056.25.114c.083.041.162.084.238.126a8.546,8.546,0,0,1,2.782,3.278l.271.447a16.233,16.233,0,0,0,1.59,2.263,9.312,9.312,0,0,0,2.414,2l.251.14c1.824.975,3.274.112,4.922-.87,2.25-1.339,4.867-2.9,9.312-.337l.194.116v.855l-.2-.121c-4.436-2.554-7.05-1-9.294.338-1.653.984-3.106,1.849-4.941.869l-.251-.139a9.285,9.285,0,0,1-2.421-2.008,16.221,16.221,0,0,1-1.6-2.273l-.271-.447a8.494,8.494,0,0,0-2.768-3.26c-.078-.045-.158-.087-.236-.126s-.167-.081-.248-.115c-1.453-.609-2.5.068-3.632.8-1.422.917-2.974,1.919-5.62.571l-.2-.107-.2-.112a12.415,12.415,0,0,1-2.9-2.426c-.88-.96-1.689-2.029-2.479-3.085l-.16-.214c-1.522-2.044-2.991-4.016-4.773-5.042-.092-.053-.185-.1-.275-.15s-.183-.091-.272-.131c-2.065-.921-3.613-.127-5.156.665-.206.106-.412.211-.618.313Q3175.939,1319,3175.9,1318.606Z" transform="translate(-3175.904 -1317.165)"/></g></g><g transform="translate(3.866 13.526)"><path class="aj" d="M3198.861,1303.33a.591.591,0,0,0,.25-.546,1.736,1.736,0,0,0-.246-.843,1.853,1.853,0,0,0-.6-.635.643.643,0,0,0-.611-.064.6.6,0,0,0-.253.556,1.7,1.7,0,0,0,.249.833,1.744,1.744,0,0,0,.609.636.6.6,0,0,0,.6.062Zm-.6-1.673a1.2,1.2,0,0,1,.54.952c0,.35-.238.5-.543.322a1.2,1.2,0,0,1-.555-.956c0-.35.243-.5.558-.318Zm.8.177a2.268,2.268,0,0,1,.328,1.114.793.793,0,0,1-.333.728.821.821,0,0,1-.8-.082,2.4,2.4,0,0,1-.814-.85,2.284,2.284,0,0,1-.323-1.107.791.791,0,0,1,.329-.735.809.809,0,0,1,.816.082A2.29,2.29,0,0,1,3199.066,1301.834Z" transform="translate(-3197.123 -1300.825)"/><path class="aj" d="M3313.771,1357.964a1.213,1.213,0,0,1,.55.954c0,.35-.249.491-.554.315a1.212,1.212,0,0,1-.551-.953c0-.35.25-.492.554-.316Zm.6,1.669a.6.6,0,0,0,.249-.546,1.744,1.744,0,0,0-.245-.844,1.771,1.771,0,0,0-.6-.634.52.52,0,0,0-.85.5,1.722,1.722,0,0,0,.247.832,1.644,1.644,0,0,0,.6.63.576.576,0,0,0,.6.062Zm.209-1.494a2.243,2.243,0,0,0-.8-.851.772.772,0,0,0-.8-.076.807.807,0,0,0-.329.735,2.352,2.352,0,0,0,.324,1.107,2.307,2.307,0,0,0,.8.843.8.8,0,0,0,.8.085.82.82,0,0,0,.328-.731A2.307,2.307,0,0,0,3314.575,1358.139Z" transform="translate(-3291.797 -1346.971)"/><path class="aj" d="M3418.208,1390.6a1.22,1.22,0,0,1,.551.957c0,.351-.25.493-.555.317a1.224,1.224,0,0,1-.554-.956c0-.35.252-.494.558-.317Zm.595,1.672a.584.584,0,0,0,.249-.545,1.7,1.7,0,0,0-.245-.844,1.754,1.754,0,0,0-.6-.634.6.6,0,0,0-.6-.057.592.592,0,0,0-.264.549,1.746,1.746,0,0,0,.26.84,1.654,1.654,0,0,0,.6.631.576.576,0,0,0,.6.06Zm.206-1.5a2.219,2.219,0,0,0-.8-.849.773.773,0,0,0-.8-.076.8.8,0,0,0-.339.728,2.345,2.345,0,0,0,.335,1.114,2.305,2.305,0,0,0,.8.844.689.689,0,0,0,1.134-.646A2.282,2.282,0,0,0,3419.008,1390.773Z" transform="translate(-3377.382 -1373.719)"/></g></g><g transform="translate(19.189 9.656)"><path class="aj" d="M3281.6,780.286l26.16,15.192c.5.288.9.06.9-.516l.007-2.044a1.988,1.988,0,0,0-.9-1.555l-26.16-15.193c-.5-.288-.9-.051-.9.515l-.005,2.044A1.97,1.97,0,0,0,3281.6,780.286Z" transform="translate(-3280.701 -769.46)"/><path class="aj" d="M3283.4,743.769l26.16,15.192c.5.289.9.06.9-.515l.006-2.044a1.989,1.989,0,0,0-.9-1.555l-26.159-15.193c-.5-.288-.9-.051-.9.515l-.005,2.044A1.968,1.968,0,0,0,3283.4,743.769Z" transform="translate(-3282.174 -739.532)"/><path class="aj" d="M3281.6,817.031l9.616,5.542c.5.289.9.06.9-.516l.007-2.044a1.989,1.989,0,0,0-.9-1.555l-9.616-5.542c-.5-.288-.9-.05-.9.515l-.005,2.044A1.97,1.97,0,0,0,3281.6,817.031Z" transform="translate(-3280.701 -799.575)"/></g><path class="w" d="M3183.146,707.514c4.876,2.815,8.841.554,8.856-5.047s-3.923-12.425-8.8-15.241-8.84-.555-8.856,5.048S3178.271,704.7,3183.146,707.514Z" transform="translate(-3174.347 -686.015)"/><g transform="translate(2.975 5.294)"><path class="ae" d="M3195.36,715.409c-.128,0-.259.013-.4.028-2.47-.095-2.918,2.447-3.081,3.981-.243,2.284.087,3.482-.449,4.492a5.451,5.451,0,0,0-.6,1.759,20.779,20.779,0,0,0,1.687,2.321c.455-1.694,2.194-3.249,2.2-4.565a2,2,0,0,1,.9-1.045l.529.578c.232.606.3.956.51,1.388.481.982.5,2.178,1.389,1.6,4.427-2.909,3.315-11.239-2.612-10.55Z" transform="translate(-3190.837 -715.359)"/><g transform="translate(0.563 5.578)"><path class="au" d="M3201.055,763.106a3.4,3.4,0,0,0-.187.444,10.228,10.228,0,0,1-1.649-.775,17.066,17.066,0,0,1-5.261-5.044,2.58,2.58,0,0,1,.392-.876,8.615,8.615,0,0,0,.877-1.549,7.107,7.107,0,0,1,.2-.887,1.484,1.484,0,0,1,.236-.484c.322-.46.9-.693,1.906-.271a22.577,22.577,0,0,1,3.145,1.537,12.917,12.917,0,0,1,2.208,1.792,1.553,1.553,0,0,1,.281.818C3203.307,759.4,3201.747,761.733,3201.055,763.106Z" transform="translate(-3193.957 -752.149)"/><path class="ag" d="M3214.594,746.277a13.051,13.051,0,0,0,.148,2.893,1.638,1.638,0,0,1-2.378-.4c.067-.415.145-.8.189-1.223Z" transform="translate(-3209.043 -746.277)"/><path class="ah" d="M3232.932,773.662a26.477,26.477,0,0,1-.392,5.953,7.2,7.2,0,0,1-2.5-.566,28.016,28.016,0,0,1-.012-3.692c.182-1.325.83-2.807,1.784-2.842C3232.5,772.489,3232.825,772.995,3232.932,773.662Z" transform="translate(-3223.471 -767.78)"/></g><path class="ai" d="M3203.37,724.355a3.034,3.034,0,0,0-.5,2.077.9.9,0,0,1-.071.5,1.96,1.96,0,0,0-.149,1.7c.173.628.161.956.375,1.171a1.246,1.246,0,0,0,.827.29,5,5,0,0,0,2.122-.653c.423-.231.406-.389.584-.79.6-.519.211-.9.01-.936-.573-.111-.666.549-1.006.7C3205.623,727.245,3203.412,725.286,3203.37,724.355Z" transform="translate(-3200.417 -722.732)"/></g></g></g></g><path class="av" d="M2553.242,475.08c-3.409-4.422-5.67-10.092-5.656-15.055l.259-115.074c5.908,3.054,6.988,10.9,6.872,18.875,9.385,28.947,11.738,43.346,4.327,47.345-1.033,3.375-2.078,3.513-2.867,9.747C2555.4,441.435,2551.987,459.247,2553.242,475.08Z" transform="translate(-2546.906 -322.101)"/></g></g><g transform="translate(0 24.127)"><path class="q" d="M2303.9,1148.151l30.474-17.356c3.323-1.518,8.078-2.726,11.462-.965,3.084,1.6,8.165,4.89,10.411,6.171,1.706.973,7.629,4.522,3.94,6.528-10.852,5.9-21.592,12.538-32.612,18.533a15.462,15.462,0,0,1-8.334,1.277,22.067,22.067,0,0,1-9.026-2.688l-5.4-3.145c-2.39-1.392-3.658-3.038-3.783-4.56C2300.91,1150.46,2301.865,1149.082,2303.9,1148.151Z" transform="translate(-2301.022 -988.782)"/><g transform="translate(11.883)"><path class="aw" d="M2504.885,486.442c-2.217-2.2-9.445-21.883-12.425-30.533-1.69-4.908.525-8.752,5.221-9.1,9.291-.694,10.427,13.878,11.792,19.677,1.524,6.48,3.668,11.872,3.239,16.436C2512.4,486.272,2507.193,488.731,2504.885,486.442Z" transform="translate(-2469.341 -429.686)"/><g transform="translate(0.934 61.13)"><path class="ax" d="M2374.369,1177.163a15.131,15.131,0,0,1-.417,2.14,24.906,24.906,0,0,0-1.1,3.438c-.563,2.4.212,5.6-.549,8.993a3.707,3.707,0,0,0,.538,3.637c.883,1.173,2.544,3.054,4.708,2.983a3.247,3.247,0,0,0,2.284-1.108,5.46,5.46,0,0,0,1.365-4.017,33.329,33.329,0,0,1-.358-4.622c.056-1.66.359-2.574.322-4.393-.041-1.924-.189-4.572-.218-5.813Z" transform="translate(-2372.063 -1089.419)"/><path class="ax" d="M2486,1114.072a11.155,11.155,0,0,0-1.07,4.812c.385,1.256,1.269,1.766,2.256,2.634l.695.152c1.723.932,2.353,4.2,3.952,5.691,1.128,1.05,3.373,1.622,5.6,2.052,2.382.46,4.644-.221,4.024-2.094-1.541-4.653-8.2-9.909-8.351-15.109Z" transform="translate(-2464.563 -1036.185)"/><path class="ay" d="M2469.55,735.561c-.171,8.915-2.6,25.439-2.3,34.224-2.693,1.868-6.354,1.439-7.836-.9-.925-8.084-2-19.269-2.11-23.7a34.419,34.419,0,0,1,1.186-10.4c-1.324-9.754-6.958-23.064-5.616-32.242.589-4.031,3.231-8.37,4-11.7,6.645,8.186,11.708,4.262,14.457,3.551-.016,2.828.2,2.451.107,5.424-.31,10.052-.778,20.786-1.33,31.216A14.264,14.264,0,0,1,2469.55,735.561Z" transform="translate(-2438.125 -690.842)"/><path class="az" d="M2459.413,768.886c-.925-8.084-2-19.269-2.11-23.7a34.419,34.419,0,0,1,1.186-10.4c-1.324-9.754-6.958-23.064-5.616-32.242.589-4.031,3.231-8.37,4-11.7,2.738,3.374,7.413,8.07,7.265,12.868-.31,10.052-.94,20.3-1.492,30.729C2462.782,745.793,2460.844,751.511,2459.413,768.886Z" transform="translate(-2438.125 -690.842)"/><path class="ba" d="M2395.434,762.866c-1.6,8.915-6.458,32.222-7.572,41.007-2.876,1.6-6.55.763-7.567-1.574-.033-8.084.185-24.3.79-28.732a55.279,55.279,0,0,1,3.7-12.564c.241-9.754-2.848-23.335-.033-32.512,1.236-4.031,4.573-8.37,5.876-11.7,1.784,2.739,3.947,3.892,9.842,3.411.577-.047,5.491-3.558,7.114-3.961-2.057,12.392-7.983,28.578-10.867,42.093A15.647,15.647,0,0,1,2395.434,762.866Z" transform="translate(-2378.808 -711.662)"/></g><path class="bb" d="M2389.985,451.679a29.982,29.982,0,0,0-8.67,7.724c-3.012,3.92-3.229,6.323-2.852,11.409.422,5.7,4.417,12.314,5.66,18.745.6,3.1,1.62,7.913-.507,13.2-1.637,4.066,2.554,5.938,8.171,5.6,6.649-.4,14.991-4.077,18.848-10.7,1.076-1.848-.955-20.392,2.195-31.16,1.7-5.806,1.1-14.846-2.168-18.6C2404.765,441.117,2397.781,446.838,2389.985,451.679Z" transform="translate(-2376.26 -428.05)"/><path class="bc" d="M2389.985,461.065a29.982,29.982,0,0,0-8.67,7.724c-3.012,3.92-3.229,6.323-2.852,11.409.422,5.7,4.417,12.314,5.66,18.745.6,3.1,1.62,7.913-.507,13.2-1.637,4.066,2.554,5.938,8.171,5.6a25.165,25.165,0,0,0,6.251-1.228c1.308-10.333,1.5-23.68-.164-33.395a76.636,76.636,0,0,0-3.073-10.887c-2.6-7.844-.591-11.527,3.05-15.991C2395.335,457.574,2392.71,459.373,2389.985,461.065Z" transform="translate(-2376.26 -437.436)"/><path class="bd" d="M2387.775,451.679c-4.167,2.587-7,4.75-9.156,7.562-3.012,3.92-3.229,6.323-2.852,11.409.422,5.7,4.3,12.8,5.538,19.232.442,2.288,2.566,4.836-1.267,16.128-3.085,9.089.518,21.947-1.994,33.161a12.123,12.123,0,0,0,9.829,3.177c5.055-24.963,11.557-58.34,3.552-78.086-1-2.463-2.132-7.433-2.035-9.009.378-6.158,7.8-8.44,12.126-1.032,7.219,12.357,4.532,57.262,3.618,79.48,1.755-1.719,2.9-3.344,3.131-4.492.453-8.568,1.113-55.928,3-62.392,1.7-5.806.453-15.171-2.817-18.927C2402.556,441.118,2395.571,446.839,2387.775,451.679Z" transform="translate(-2374.05 -428.051)"/><path class="be" d="M2376.911,538.508c-1.374,2.616-1.431,4.933-1.144,8.806.422,5.7,4.3,12.8,5.538,19.232.442,2.288,2.566,4.836-1.267,16.128-3.085,9.089.518,21.947-1.994,33.161a11.651,11.651,0,0,0,1.649,1.321c4.527-11.057,1.173-31.691,7.434-43.206a46.428,46.428,0,0,1,7.708.613c.383-4.386.4-7.689.389-11.852a28.645,28.645,0,0,1-7.895-3.237c.583-9.165.7-14.18-1.214-17.7C2384.585,538.963,2381.935,537.857,2376.911,538.508Z" transform="translate(-2374.05 -504.714)"/><g transform="translate(14.13)"><path class="bf" d="M2489.389,516.983c2.1,5.826.321,8-2.133,11.968-2.672,4.318-2.006,9.53-1.823,15.093a15.967,15.967,0,0,0,4.812,4.568,27.3,27.3,0,0,1,2.245-6.825,14.452,14.452,0,0,1-1.039-8.785c1.221-4.943,4.475-8.985-.432-16.548.5-2.066.59-2.715.165-2.953-.5-.278-.388-.031-1.945.122-.932.092-2.422.336-2.166,1.374A2.828,2.828,0,0,0,2489.389,516.983Z" transform="translate(-2478.004 -484.265)"/><path class="ag" d="M2464.849,446.236c.152-.326.321-.647.488-1,.476-.994.722-3.1,1.613-5.425l-8.729-4-1.848-1.042a15.636,15.636,0,0,1-2.1,8.774c-.469,3.32,6.094,4.825,9.551,5.675C2464.232,448.421,2464.384,447.239,2464.849,446.236Z" transform="translate(-2452.617 -419.846)"/><path class="bg" d="M2507.306,490.146c.187-.476.282-1.459.484-2.314.18-.765.865-2.642.872-3.132.778.2,1.269,4.62,2.156,6.483A4.793,4.793,0,0,0,2507.306,490.146Z" transform="translate(-2496.1 -460.762)"/><path class="bg" d="M2447.074,479.616c.117,3.293,5.665,5.557,9.363,6.366-.9,1.083-2.056,2.444-2.01,3.526-2.578-.705-6.951-1.918-8.722-5.214A3.225,3.225,0,0,1,2447.074,479.616Z" transform="translate(-2445.198 -456.596)"/><path class="ai" d="M2468.791,390.545c-.98-.76-3.4-2.334-4.271-3.083-1.911-1.638-1.522-3.514-1.882-6.526-1.79-1.5-2.345-2.617-2.422-3.843a8.818,8.818,0,0,1,4.021-7.418,7.665,7.665,0,0,1,6.721-.85c4.75,1.424,6.625,4.146,6.564,8.342a11.673,11.673,0,0,1-.378,2.111c-.325.821-.567.938-.733,1.518a2.785,2.785,0,0,0,.024,1.451c.347,1.441-1.941,7.8-2.958,8.42A4.639,4.639,0,0,1,2468.791,390.545Z" transform="translate(-2457.496 -365.462)"/><path class="bh" d="M2467.018,378.248c-1.061-.777-5.012-3.693-6.71-5.063-1.738-1.4-3.639-2.9-5.422-1.94a9.705,9.705,0,0,0-2.551,6.323c.011,2.548,1.294,4.979,3.1,7.611.68.99,1.153-2.539,1.534-3.232.241,1.323.6,1.925.983,2.077.278.11.568.333.836-1.257.411-2.438,1.632-2.635,1.344-4.327-.231-1.356.588-1.058.95-1.514C2462.863,377.313,2464.361,378.481,2467.018,378.248Z" transform="translate(-2451.047 -367.529)"/><path class="ai" d="M2464.76,422.163c-1.759-.964-2.149,1.194-2.088,2.554.042.935.8,1,.941,1.755a1.724,1.724,0,0,0,1.325,1.495c1.145.168.736-1.647.718-2.342C2465.981,424.548,2465.877,422.775,2464.76,422.163Z" transform="translate(-2459.515 -409.312)"/><path class="bi" d="M2465.6,355.879c1.357.622,2.854,2.417,4.722,3.873,2.573,2,5.636,3.645,8.183,3.4,1.464-.141,3.076-.937,3.391-1.522C2486.6,352.871,2469.159,348.265,2465.6,355.879Z" transform="translate(-2461.917 -352.029)"/><g transform="translate(11.267 15.283)"><path class="bj" d="M2525.544,474.913c-.193-.027-.271.062-.5.108a1.752,1.752,0,0,0-.745.061c-.479.139-.556.408-1.271.56-.216.046-.18.081.037.177a4.627,4.627,0,0,0,2.124,0c.346-.116.242-.3.422-.463C2525.747,475.226,2525.928,474.968,2525.544,474.913Z" transform="translate(-2520.134 -468.021)"/><path class="bk" d="M2510.61,439.66a3.421,3.421,0,0,1-2.965-.429A2.4,2.4,0,0,0,2510.61,439.66Z" transform="translate(-2507.645 -438.781)"/><path class="bk" d="M2540.385,437.156a2.539,2.539,0,0,0,1.707-.419,1.837,1.837,0,0,1-1.728.567Z" transform="translate(-2534.461 -436.737)"/><path class="bk" d="M2536.917,444.158a5.092,5.092,0,0,0,.586,2.22c.766,1.229.336,1.7-.933,1.829,1.343-.347,1.2-.735.712-1.826A5.342,5.342,0,0,1,2536.917,444.158Z" transform="translate(-2531.351 -442.819)"/><path class="bk" d="M2543.073,438.734c-.183.443-.667.565-.946.169A2.464,2.464,0,0,0,2543.073,438.734Z" transform="translate(-2535.905 -438.374)"/><path class="bk" d="M2512.667,442.02c.183.443.667.565.946.169A2.463,2.463,0,0,1,2512.667,442.02Z" transform="translate(-2511.76 -441.067)"/></g></g><g transform="translate(26.865 23.109)"><path class="ai" d="M2522.148,494.937a22.388,22.388,0,0,0-3.146-3.842,8.572,8.572,0,0,1-2.442-5.892,1.673,1.673,0,0,1,1.237-1.509,7.825,7.825,0,0,1,1.117-.063,4.5,4.5,0,0,1,1.168-1.264,1.151,1.151,0,0,1,1.4-.21,7.542,7.542,0,0,1,2.076,1.082,12.9,12.9,0,0,1,1.563,2.4c.478.878,1.092,2.534.892,3.193-.441,1.448-.879,1.769-.644,2.674l.635,2.441Z" transform="translate(-2516.419 -481.669)"/><path class="ai" d="M2524.755,482.038a4.072,4.072,0,0,1,.885-1.435,1.215,1.215,0,0,1,1.436-.422,7.94,7.94,0,0,1,2.328.832,13.571,13.571,0,0,1,1.981,2.282,7.486,7.486,0,0,1,1.219,2.484l-.885.143-1.955-.559C2526.671,485.186,2525.238,482.233,2524.755,482.038Z" transform="translate(-2523.136 -480.109)"/><path class="ag" d="M2545.667,505.6c-.575,0-.407.126-.92-.134-.041.5-.425,1-.642.925a.9.9,0,0,1-.537-.7,1.644,1.644,0,0,1,.786-1.581,6.976,6.976,0,0,1,2.192-.041c.584.03.844,0,1.06.283a2.663,2.663,0,0,1,.385.887,2.539,2.539,0,0,1,.008,1.9C2547.322,506.579,2546.713,505.237,2545.667,505.6Z" transform="translate(-2538.546 -499.703)"/><path class="ag" d="M2523.895,482.639a4.755,4.755,0,0,1,1.04-1.491,1.76,1.76,0,0,1,.442-.374l2.752,4.318c-.282.327-1.162,1.8-.092,2.263A10.443,10.443,0,0,1,2523.895,482.639Z" transform="translate(-2522.431 -480.654)"/><g transform="translate(0 1.678)"><path class="ai" d="M2516.292,493.191a8.2,8.2,0,0,1-.479-2.329,1.1,1.1,0,0,1,.839-1.387,8.312,8.312,0,0,1,1.18-.066l.752.181a1.37,1.37,0,0,1-1.086,2.015,18.8,18.8,0,0,0,.548,3.67C2518.112,495.564,2516.82,494.566,2516.292,493.191Z" transform="translate(-2515.784 -489.409)"/><path class="ag" d="M2521.144,490.225a1.89,1.89,0,0,1-2.243,1.59,1.644,1.644,0,0,0,1.728.3A1.172,1.172,0,0,0,2521.144,490.225Z" transform="translate(-2518.338 -490.078)"/></g><path class="bl" d="M2539.418,537.9c.541.836,4.528-.277,4.864-1.026l.624,1.46a8.1,8.1,0,0,1,1.345,1.462c3.162,5.568,4.106,10.667,5.245,17.007a4.194,4.194,0,0,1-6,4.646c-4.859-2.794-5.572-15.752-5.9-20.3-.022-.314.374-1.178.312-1.484C2539.761,539.2,2539.525,538.177,2539.418,537.9Z" transform="translate(-2535.154 -526.629)"/><path class="bm" d="M2539.418,542.557a1.055,1.055,0,0,0,.868.3c.089.806.177,1.262.465,1.545a11.871,11.871,0,0,0,4.155-1.408,8.058,8.058,0,0,1-3.5,2.477c.065,2.833,2.356,18.555,7.412,20.843a3.98,3.98,0,0,1-3.321-.205c-4.86-2.795-5.573-15.752-5.9-20.3-.023-.314.374-1.178.312-1.484C2539.761,543.86,2539.525,542.838,2539.418,542.557Z" transform="translate(-2535.154 -531.29)"/></g><g transform="translate(0 32.702)"><g transform="translate(23.226 8.705)"><path class="ai" d="M2519.432,695.931c.083.012,2.578-1.318,3.609-1.137a26.131,26.131,0,0,0,6.474.761c-.932,1.314-1.6,1.522-3.157,1.193C2523.232,696.625,2521.668,698.113,2519.432,695.931Z" transform="translate(-2515.134 -674.344)"/><g transform="translate(3.228)"><path class="bn" d="M2514.913,682.691l12.186-15.2-.769-1.028L2513.808,681.6h0a1.191,1.191,0,0,0-.3.531.132.132,0,0,0,.023.09l.768,1.028C2514.559,683.2,2514.832,682.79,2514.913,682.691Z" transform="translate(-2513.505 -651.138)"/><path class="bo" d="M2625.367,582.141l-20.4,11.775.769,1.028,20.637-11.58a8.024,8.024,0,0,0,1.34-.758l-.769-1.028c-.153-.2-.951.218-.956.22C2625.779,581.9,2625.575,582.021,2625.367,582.141Z" transform="translate(-2588.469 -581.525)"/><path class="bp" d="M2589.037,651.229l-.769-1.028-.021.013a17.758,17.758,0,0,0-1.888,1.29c-.283.221-.556.447-.824.688a8.567,8.567,0,0,0-.944.943l.768,1.028C2586.375,655.023,2589.406,653.876,2589.037,651.229Z" transform="translate(-2571.765 -637.81)"/><path class="bq" d="M2554.789,587.765l-20.521,11.848a15.94,15.94,0,0,0-3.678,2.934l-12.522,15.138c-.689.846-.162.9,1.181.129l20.521-11.847a15.957,15.957,0,0,0,3.674-2.932l12.522-15.138C2556.655,587.051,2556.127,586.992,2554.789,587.765Z" transform="translate(-2516.997 -586.194)"/></g><path class="ai" d="M2513.209,697.665c-1.422-.365-3.052.6-5.28,1.185-2.885.754-2.388-.74-4.518-1.273-1.644-.411-3.332.451-6.715-.079l-1.084,4.253.329.411a11.463,11.463,0,0,1,4.861,1.341,9.009,9.009,0,0,0,3.065,1.056,12.688,12.688,0,0,0,5.221-1.5,3.7,3.7,0,0,0,2.44-2.338Z" transform="translate(-2495.612 -676.544)"/></g><path class="br" d="M2378.561,539.043c.2,4.979-1.514,12.232-2.028,17.871,4.037.973,9.793,3.188,13.321,4.347.678.223,1.082.926,1.544,1.379a5.948,5.948,0,0,0,1.463.258c.338.367-.114,3.777-1.208,5.006-.337-.1-1.678-.233-2.044-.315-.693-.015-1.278.366-1.841.329-1.5-.1-6.581-1.019-10.65-1.862a34.636,34.636,0,0,1-6.814-2.218,5.985,5.985,0,0,1-1.356-.885,2.934,2.934,0,0,1-.958-1.141c-.848-4.585-1.054-13.042-1.1-16.753-.1-7.591,2.3-11.449,5.943-11.75C2376.193,533.031,2378.383,534.6,2378.561,539.043Z" transform="translate(-2366.884 -533.278)"/></g></g></g><g transform="translate(172.338 1.011)"><path class="bs" d="M3301.2,267.7l-.109,38.485c-.008,2.809-2.014,3.954-4.459,2.542l-35.989-20.778a9.8,9.8,0,0,1-4.43-7.674l.151-53.221c.008-2.809,2.015-3.952,4.46-2.542l23.509,13.573Z" transform="translate(-3256.213 -223.907)"/><g transform="translate(4.712 15.698)"><path class="bt" d="M3283.633,316.7l17.5,10.1c.742.43,1.33.094,1.332-.736l.007-2.58a2.92,2.92,0,0,0-1.323-2.293l-17.5-10.1c-.722-.417-1.31-.06-1.312.771l-.008,2.581A2.878,2.878,0,0,0,3283.633,316.7Z" transform="translate(-3282.329 -310.911)"/><path class="bt" d="M3316.7,394.139c.508.294.919.059.921-.526l.006-1.817a2.013,2.013,0,0,0-.915-1.585L3283.255,370.9c-.508-.292-.919-.058-.921.525l-.005,1.819a2.015,2.015,0,0,0,.915,1.584Z" transform="translate(-3282.329 -359.97)"/><path class="bt" d="M3316.7,444.393c.508.294.919.059.921-.525l.006-1.817a2.014,2.014,0,0,0-.915-1.585l-33.454-19.316c-.508-.292-.919-.058-.921.526l-.005,1.819a2.015,2.015,0,0,0,.915,1.584Z" transform="translate(-3282.329 -401.158)"/><path class="bt" d="M3316.7,494.649c.508.294.919.058.921-.526l.006-1.817a2.014,2.014,0,0,0-.915-1.585l-33.454-19.316c-.508-.292-.919-.058-.921.525l-.005,1.819a2.016,2.016,0,0,0,.915,1.584Z" transform="translate(-3282.329 -442.346)"/><path class="bt" d="M3316.7,546.817c.508.294.919.058.921-.526l.006-1.816a2.014,2.014,0,0,0-.915-1.585l-33.454-19.316c-.508-.292-.919-.058-.921.526l-.005,1.819a2.016,2.016,0,0,0,.915,1.584Z" transform="translate(-3282.329 -485.102)"/></g><g transform="translate(25.776 14.066)"><path class="bu" d="M3418.271,339.334,3403.3,328.619c-4.421-4.065-4.425-6.226-4.11-11.193l2.053-15.559.2.116,16.839,29.595Z" transform="translate(-3399.074 -301.867)"/><path class="bv" d="M3428.742,332.1l-12.463-7.2a9.808,9.808,0,0,1-4.448-7.685l.042-14.734Z" transform="translate(-3409.53 -302.373)"/></g></g><g transform="translate(6.317 183.892)"><path class="q" d="M2418.441,1270.628a4.074,4.074,0,0,1,3.682,0l4.069,2.365,2.375-1.371a1.553,1.553,0,0,1,1.406,0l5.852,3.4a.431.431,0,0,1-.006.814l-2.375,1.371,3.979,2.313a1.129,1.129,0,0,1-.014,2.133l-4.359,2.516,14.1,8.2c1.447.841,1.442,2.209-.015,3.051l-58.949,34.034a5.808,5.808,0,0,1-5.268,0l-44.7-25.975c-1.448-.841-1.441-2.209.017-3.052l58.949-34.034a5.811,5.811,0,0,1,5.266,0l11.626,6.756Z" transform="translate(-2336.944 -1260.664)"/><path class="bw" d="M2867.815,1321.71l1.934-1.365a9.389,9.389,0,0,1,1.281-.674l0,1.826a1.3,1.3,0,0,1-.766,1.075l-2.19,1.265-2.577,1.487,0-1.826Z" transform="translate(-2769.969 -1304.85)"/><path class="bx" d="M2852.883,1281.841a.355.355,0,0,1,.152.23c.043.2-.055,1.33-.054,1.624a.228.228,0,0,0-.128-.18l-2.591-1.505-.138-.987.135-.623Z" transform="translate(-2757.37 -1272.665)"/><path class="by" d="M2337.216,1438.732l42.163,24.254c4.259,1.836,6.344,2.511,7.846,1.643l-.09,1.471a5.917,5.917,0,0,1-4.609.3,9.019,9.019,0,0,1-1.441-.75l-43.959-25.53a1.958,1.958,0,0,1-1.079-1.417c-.029-.327,0-.859.018-1.251,0-.087.006-.129.006-.2Z" transform="translate(-2336.035 -1401.218)"/><path class="bw" d="M2678.194,1394.512a1.82,1.82,0,0,0,1.073-1.38l.036,1.226a1.877,1.877,0,0,1-1.106,1.547l-58.949,34.034,0-1.393Z" transform="translate(-2568.147 -1365.058)"/><path class="bw" d="M2842.124,1279.767a.7.7,0,0,1,.62.076l0,1.61a.694.694,0,0,0-.623,0l-1.169.675v-1.685Z" transform="translate(-2749.855 -1272.109)"/><path class="bw" d="M2871.577,1291.207c.2-.113,1.031.052,1.03-.1l0,1.826a.5.5,0,0,1-.293.411l-2.376,1.372,0-1.826Z" transform="translate(-2773.61 -1281.444)"/><path class="bz" d="M2430.474,1247.807l1.169-.675a.191.191,0,0,0,0-.361l-2.591-1.505a.685.685,0,0,0-.623,0l-1.169.675,3.213,1.868Zm-93.183,24.388,58.949-34.034a5.811,5.811,0,0,1,5.267,0l11.625,6.756,4.358-2.516a4.074,4.074,0,0,1,3.682,0l4.069,2.365,2.375-1.371a1.555,1.555,0,0,1,1.406,0l5.851,3.4a.431.431,0,0,1-.006.814l-2.375,1.371,3.98,2.313a1.128,1.128,0,0,1-.014,2.132l-4.358,2.516,14.1,8.2c1.448.841,1.442,2.209-.015,3.05l-58.948,34.034a5.812,5.812,0,0,1-5.268,0l-44.7-25.975C2335.826,1274.406,2335.832,1273.037,2337.291,1272.2Z" transform="translate(-2336.164 -1237.531)"/><path class="ak" d="M2356.867,1281.358l55.187-31.862a5.44,5.44,0,0,1,4.93,0l41.845,24.318c1.355.788,1.35,2.068-.014,2.856l-55.187,31.862a5.44,5.44,0,0,1-4.932,0l-41.845-24.318C2355.5,1283.427,2355.5,1282.146,2356.867,1281.358Z" transform="translate(-2352.265 -1246.853)"/><g transform="translate(8.985 2.323)"><path class="ca" d="M2659.921,1251.835l46.178,26.836,1.548-.888c1.364-.874,1.5-2.02-.941-3.238l-39.822-23.142c-2.831-1.642-4.848-.858-5.426-.455Z" transform="translate(-2610.469 -1250.404)"/><g transform="translate(0 4.042)"><path class="aj" d="M2574.586,1280.631l14.137,8.215,13.55-7.823-14.138-8.216Z" transform="translate(-2540.531 -1272.808)"/><path class="cb" d="M2577.826,1282.482l4.218,2.441,5.826-.7-1.219,3.372,4.2,2.451,2.233-6.447,11.261-1.344-4.04-2.347-6.186.708,1.241-3.582-4.038-2.347-2.358,6.517Z" transform="translate(-2543.187 -1274.352)"/><path class="aj" d="M2480.213,1335.117l14.137,8.215,13.549-7.823-14.137-8.215Z" transform="translate(-2463.185 -1317.464)"/><path class="aj" d="M2385.834,1389.606l14.137,8.216,13.549-7.823-14.137-8.215Z" transform="translate(-2385.834 -1362.121)"/><path class="cb" d="M2532.27,1319.846l-.721,1.423-5.4,10.644,17.078-1.51-3.672-2.134-7.513.663,2.88-5.7.719-1.423Z" transform="translate(-2500.836 -1311.36)"/><path class="cb" d="M2424.168,1385.477l6.893-12.222,2.279,1.962-7.112,11.7Z" transform="translate(-2417.252 -1355.132)"/></g><g transform="translate(16.671 14.804)"><path class="cb" d="M2736.116,1333.178a.392.392,0,0,0-.007.742l21.36,12.413a1.417,1.417,0,0,0,1.281,0l.987-.57a.393.393,0,0,0,0-.741l-21.36-12.412a1.417,1.417,0,0,0-1.279,0Z" transform="translate(-2689.369 -1332.456)"/><path class="aj" d="M2689.518,1346.2l.753-.435a1.079,1.079,0,0,1,.974,0l14.93,8.677a.3.3,0,0,1,0,.564l-.752.434a1.081,1.081,0,0,1-.976,0l-14.93-8.677a.3.3,0,0,1,0-.565Zm17.033,2.481a.4.4,0,0,0,.19-.206.249.249,0,0,0,0-.154.4.4,0,0,0-.188-.207l-9.657-5.612a1.08,1.08,0,0,0-.976,0l-.317.183-.433.251a.346.346,0,0,0-.2.282.341.341,0,0,0,.2.282l9.657,5.612a1.084,1.084,0,0,0,.748.089.836.836,0,0,0,.229-.087l.75-.433Zm-14.034-4.212a.3.3,0,0,0,0,.565l21.664,12.589a1.076,1.076,0,0,0,.974,0l.752-.434a.3.3,0,0,0,0-.564l-21.663-12.589a1.077,1.077,0,0,0-.975,0Z" transform="translate(-2651.23 -1340.597)"/><path class="aj" d="M2595.145,1400.688a.3.3,0,0,0-.005.565l14.931,8.677a1.083,1.083,0,0,0,.976,0l.75-.433a.3.3,0,0,0,0-.564l-14.931-8.677a1.078,1.078,0,0,0-.974,0l-.75.433Zm5.653-3.263.75-.433a1.079,1.079,0,0,1,.976,0l9.657,5.612a.3.3,0,0,1,0,.567l-.75.434a1.082,1.082,0,0,1-.977,0l-9.657-5.612a.3.3,0,0,1,0-.564Zm-2.654,1.532.752-.435a1.077,1.077,0,0,1,.974,0l21.664,12.59a.3.3,0,0,1,0,.564l-.752.434a1.078,1.078,0,0,1-.975,0l-21.663-12.59A.3.3,0,0,1,2598.143,1398.957Z" transform="translate(-2573.884 -1385.252)"/><path class="cb" d="M2641.74,1387.665a.392.392,0,0,0,0,.741l21.36,12.413a1.419,1.419,0,0,0,1.279,0l.987-.57a.393.393,0,0,0,.006-.742l-21.359-12.413a1.417,1.417,0,0,0-1.281,0Z" transform="translate(-2612.022 -1377.111)"/><path class="aj" d="M2478.438,1462.213a.3.3,0,0,0,0,.565l14.93,8.677a1.083,1.083,0,0,0,.976,0l.751-.433a.3.3,0,0,0,0-.565l-14.931-8.676a1.074,1.074,0,0,0-.974,0l-.75.433Zm5.652-3.263.75-.433a1.079,1.079,0,0,1,.976,0l9.657,5.612a.3.3,0,0,1,0,.566l-.75.434a1.082,1.082,0,0,1-.976,0l-9.657-5.612a.3.3,0,0,1,0-.565Zm-2.654,1.532.752-.434a1.077,1.077,0,0,1,.974,0l21.664,12.59a.3.3,0,0,1,0,.564l-.752.435a1.077,1.077,0,0,1-.974,0l-21.664-12.59A.3.3,0,0,1,2481.437,1460.482Z" transform="translate(-2478.234 -1435.676)"/></g></g><g transform="translate(59.872 36.252)"><path class="q" d="M2725.643,1451.445l7.1-1.2h0l2.016-.371c.2-.037.21-.026.065.142l-1.438,1.658-4.327,5.079,0-.008-1.649,2.086-54.624,32.344,0,0h0l0,0,0,0-2.546-1.606-.883-3.7,1.66-2.1h0l54.622-32.342Z" transform="translate(-2669.08 -1447.802)"/><path class="cc" d="M2979.8,1440.148l9.289-1.566-5.336,2.936-1.409.238Z" transform="translate(-2923.522 -1438.56)"/><path class="cd" d="M2711.5,1494.761l4.965-3.384,26.692-14.784-1.656,2.1-54.633,32.349.6-1.212,1.055-.884,11.383-7.759Z" transform="translate(-2683.442 -1469.712)"/><path class="cb" d="M2731.683,1447.186l2.546,1.606-26.849,17.449-6.313,3.147-10.245,6.658-11.931,5.948-1.833-2.46,0-.006Z" transform="translate(-2675.401 -1445.611)"/><path class="ca" d="M2744.153,1456.086l.888,3.7-54.633,32.349-1.241-1.618.354-2.081Z" transform="translate(-2685.326 -1452.906)"/><path class="ce" d="M3000.644,1438.581l-5.856,6.875-.889-3.7Z" transform="translate(-2935.076 -1438.558)"/><path class="cd" d="M3019.243,1438.846l2.016-.371c.2-.037.209-.026.065.142l-1.439,1.66C3020.036,1439.746,3020.162,1438.948,3019.243,1438.846Z" transform="translate(-2955.848 -1438.457)"/><path class="cd" d="M2669.535,1626.443l-1.66,2.1.883,3.7,2.55,1.608,1.659-2.1-.889-3.7-1.276-.81Z" transform="translate(-2667.875 -1592.526)"/></g></g></g></g></svg>