<svg xmlns="http://www.w3.org/2000/svg" width="20.425" height="23.864" viewBox="0 0 20.425 23.864"><defs><style>.a{fill:#696969;}</style></defs><g transform="translate(-24.882)"><g transform="translate(24.882)"><path class="a" d="M44.506.8A2.674,2.674,0,0,0,42.6,0H27.591a2.674,2.674,0,0,0-1.907.8,2.674,2.674,0,0,0-.8,1.907v14.98a2.674,2.674,0,0,0,.8,1.907,2.768,2.768,0,0,0,1.907.774h3.731L32.4,21.7l.028.028,1.244,1.52a1.732,1.732,0,0,0,1.023.58,2.123,2.123,0,0,0,1.161-.111,1.489,1.489,0,0,0,.359-.193,1.788,1.788,0,0,0,.249-.221l.055-.055,1.244-1.52.028-.028,1.078-1.327H42.6a2.737,2.737,0,0,0,2.709-2.709V2.709A2.674,2.674,0,0,0,44.506.8ZM43.9,17.689a1.253,1.253,0,0,1-.387.912,1.318,1.318,0,0,1-.912.387H38.508a.684.684,0,0,0-.58.3l-1.244,1.493-.028.028L35.385,22.36c-.028,0-.028.028-.055.028a.539.539,0,0,1-.359.028.66.66,0,0,1-.193-.083l-1.244-1.52-.028-.028-1.244-1.52c0-.028-.028-.028-.028-.055a.721.721,0,0,0-.58-.3H27.591a1.253,1.253,0,0,1-.912-.387,1.318,1.318,0,0,1-.387-.912V2.709h.028a1.253,1.253,0,0,1,.387-.912,1.318,1.318,0,0,1,.912-.387H42.6a1.253,1.253,0,0,1,.912.387,1.318,1.318,0,0,1,.387.912Z" transform="translate(-24.882)"/></g><g transform="translate(31.432 3.372)"><path class="a" d="M125.9,49.85a3.645,3.645,0,1,0-5.141,5.169,3.733,3.733,0,0,0,2.57,1.05,3.635,3.635,0,0,0,2.57-6.219Zm-1,4.174a2.239,2.239,0,0,1-3.814-1.575,2.354,2.354,0,0,1,.663-1.575,2.228,2.228,0,1,1,3.151,3.151Z" transform="translate(-119.682 -48.8)"/></g><g transform="translate(28.142 11.028)"><path class="a" d="M83.807,160.816a10.008,10.008,0,0,0-9.563,0,3.988,3.988,0,0,0-2.183,3.289v.663a.691.691,0,0,0,.691.719H85.272a.714.714,0,0,0,.719-.719v-.663A3.917,3.917,0,0,0,83.807,160.816Zm-10.365,3.261a2.731,2.731,0,0,1,1.493-2.045,8.582,8.582,0,0,1,8.126,0,2.665,2.665,0,0,1,1.493,2.045Z" transform="translate(-72.059 -159.6)"/></g></g></svg>