<svg xmlns="http://www.w3.org/2000/svg" width="26.019" height="39.076" viewBox="0 0 26.019 39.076"><defs><style>.a{fill:#696969;}</style></defs><g transform="translate(-79.175 -0.002)"><g transform="translate(79.175 0.002)"><path class="a" d="M104.535,19.136H98.327a.66.66,0,0,0,0,1.319h2.421A10.126,10.126,0,1,1,90.424,9.7l2.131,2.863,1.517,2.045a1.385,1.385,0,0,0,1.938.284h0l3.015-2.243a1.385,1.385,0,0,0,.284-1.938h0L97.793,8.666,92.944,2.116A1.425,1.425,0,0,0,91,1.832l-.983.726L88.385.361a.66.66,0,1,0-1.055.765l1.636,2.2-.976.726a1.385,1.385,0,0,0-.284,1.938h0l1.768,2.395a11.446,11.446,0,0,0-2.7,22.166v3.694h-2.79a.66.66,0,0,0-.66.66v3.516a.66.66,0,0,0,.66.66H97.265a.66.66,0,0,0,.66-.64V34.922a.66.66,0,0,0-.66-.66h-2.5v-3.8a11.459,11.459,0,0,0,7.3-10.007h2.467a.66.66,0,1,0,0-1.319Zm-6.28-7.672a.066.066,0,0,1,0,.092L95.24,13.8H95.2l-1.181-1.537,3.107-2.316Zm-9.5-6.234a.079.079,0,0,1,0-.092l1.5-1.121,1.511-1.121h.092l4.459,5.99L93.214,11.2ZM88.1,30.957a11.115,11.115,0,0,0,5.35-.073v3.384H88.1Zm8.51,4.624v2.2H84.638v-2.2Z" transform="translate(-79.175 -0.002)"/></g></g></svg>