<svg xmlns="http://www.w3.org/2000/svg" width="33.485" height="41.5" viewBox="0 0 33.485 41.5"><defs><style>.a{fill:#f74e5a;}.b{fill:#f3c544;}</style></defs><path class="a" d="M29.619,40.129a5.355,5.355,0,0,1,5.355-5.355V8H14.23l-.007.007v6.018H8.2V48.162H34.973V45.484A5.355,5.355,0,0,1,29.619,40.129Zm1.339-6.694" transform="translate(-7.513 -7.331)"/><path class="b" d="M48.869,177.339H67.611a.669.669,0,0,0,0-1.339H48.869a.669.669,0,1,0,0,1.339Zm0,0" transform="translate(-44.166 -161.274)"/><path class="b" d="M48.869,209.339H67.611a.669.669,0,1,0,0-1.339H48.869a.669.669,0,1,0,0,1.339Zm0,0" transform="translate(-44.166 -190.597)"/><path class="b" d="M48.869,241.339H67.611a.669.669,0,0,0,0-1.339H48.869a.669.669,0,0,0,0,1.339Zm0,0" transform="translate(-44.166 -219.919)"/><path class="b" d="M48.869,273.339H67.611a.669.669,0,0,0,0-1.339H48.869a.669.669,0,0,0,0,1.339Zm0,0" transform="translate(-44.166 -249.242)"/><path class="b" d="M68.28,304.669A.669.669,0,0,0,67.61,304H48.868a.669.669,0,0,0,0,1.339H67.61A.669.669,0,0,0,68.28,304.669Zm0,0" transform="translate(-44.166 -278.564)"/><path class="b" d="M33.485,32.8a6.031,6.031,0,0,0-5.355-5.985V.669A.669.669,0,0,0,27.46,0H6.71a.664.664,0,0,0-.487.216L.217,6.171a.654.654,0,0,0-.151.238A.652.652,0,0,0,0,6.693a.691.691,0,0,0,.017.1V40.831a.669.669,0,0,0,.669.669H27.46a.669.669,0,0,0,.669-.669V38.783A6.031,6.031,0,0,0,33.485,32.8ZM6.041,2.281V6.024H2.265ZM1.355,40.161V7.363H6.71a.669.669,0,0,0,.669-.669V1.338H26.791V26.814a6.024,6.024,0,0,0,0,11.969v1.378ZM27.46,37.484A4.686,4.686,0,1,1,32.146,32.8,4.686,4.686,0,0,1,27.46,37.484Zm0,0" transform="translate(0 0)"/><path class="b" d="M300.057,354.742a.67.67,0,0,0-.946,0l-1.657,1.657-1.657-1.657a.669.669,0,0,0-.946.947l1.656,1.657L294.851,359a.669.669,0,1,0,.946.947l1.657-1.657,1.657,1.657a.669.669,0,0,0,.946-.947l-1.657-1.657,1.657-1.657A.67.67,0,0,0,300.057,354.742Zm0,0" transform="translate(-269.993 -324.881)"/></svg>