<svg xmlns="http://www.w3.org/2000/svg" width="14.243" height="18" viewBox="0 0 14.243 18"><defs><style>.a{fill:#fff;}</style></defs><path class="a" d="M67.383,14.324a2.8,2.8,0,0,1-.85-1.157,13.39,13.39,0,0,1-.886-5.291c0-.007,0-.013,0-.02A5.107,5.107,0,0,0,62.64,3.224V2.005a2.006,2.006,0,0,0-2-2.005h-.166a2.006,2.006,0,0,0-2,2.005V3.223a5.107,5.107,0,0,0-3.007,4.652,13.391,13.391,0,0,1-.886,5.291,2.8,2.8,0,0,1-.85,1.157.513.513,0,0,0-.282.583.536.536,0,0,0,.529.412h3.865a2.715,2.715,0,0,0,5.43,0h3.865a.537.537,0,0,0,.529-.412A.513.513,0,0,0,67.383,14.324ZM59.525,2.005a.949.949,0,0,1,.947-.949h.166a.949.949,0,0,1,.947.949v.876a5.107,5.107,0,0,0-2.06,0V2.005Zm1.03,14.938A1.664,1.664,0,0,1,58.9,15.32h3.32A1.664,1.664,0,0,1,60.556,16.943Zm2.123-2.68h-7.5a5.525,5.525,0,0,0,.276-.485,13.351,13.351,0,0,0,1.065-5.9,4.037,4.037,0,1,1,8.073,0c0,.007,0,.013,0,.019a13.324,13.324,0,0,0,1.065,5.881,5.536,5.536,0,0,0,.276.485Z" transform="translate(-53.434)"/></svg>