<svg xmlns="http://www.w3.org/2000/svg" width="29.813" height="36" viewBox="0 0 29.813 36"><defs><style>.a{opacity:0.8;}.b{fill:#c2d9ef;}.c{fill:#ff5cf0;}.d{fill:#d7ff7a;}.e{fill:#1428bf;}</style></defs><g class="a" transform="translate(1.336 1.406)"><path class="b" d="M67.289,46.159V27.028A7.02,7.02,0,0,1,74.3,20H70.031A7.031,7.031,0,0,0,63,27.031V46.156a7.031,7.031,0,0,0,7.031,7.031H74.3A7.02,7.02,0,0,1,67.289,46.159Z" transform="translate(-63 -20)"/></g><g transform="translate(8.906 13)"><ellipse class="c" cx="1.5" cy="2" rx="1.5" ry="2" transform="translate(0.202 0)"/></g><path class="d" d="M65.377,36H52.436A8.446,8.446,0,0,1,44,27.564V8.436A8.446,8.446,0,0,1,52.436,0h12.94a8.446,8.446,0,0,1,8.436,8.436V27.564A8.446,8.446,0,0,1,65.377,36ZM52.436,2.813a5.63,5.63,0,0,0-5.624,5.624V27.564a5.63,5.63,0,0,0,5.624,5.624h12.94A5.63,5.63,0,0,0,71,27.564V8.436a5.63,5.63,0,0,0-5.624-5.624Z" transform="translate(-44 0)"/><g transform="translate(15.398 5.625)"><path class="e" d="M270.313,88.719h-2.391A4.927,4.927,0,0,1,263,83.8V81.406a1.406,1.406,0,0,1,2.813,0V83.8a2.112,2.112,0,0,0,2.109,2.109h2.391a1.406,1.406,0,0,1,0,2.813Z" transform="translate(-263 -80)"/></g><g transform="translate(8.086 24.961)"><path class="c" d="M170.109,357.813h-9.7a1.406,1.406,0,0,1,0-2.812h9.7a1.406,1.406,0,0,1,0,2.813Z" transform="translate(-159 -355)"/></g><g transform="translate(8.086 19.547)"><path class="c" d="M170.109,280.813h-9.7a1.406,1.406,0,0,1,0-2.813h9.7a1.406,1.406,0,0,1,0,2.813Z" transform="translate(-159 -278)"/></g></svg>