<svg xmlns="http://www.w3.org/2000/svg" width="27.773" height="34.716" viewBox="0 0 27.773 34.716"><defs><style>.a{fill:#f5e158;}.b{fill:#0057ff;}.c{fill:#fcb98b;}.d{fill:#ffd3b3;}.e{fill:#6e83b7;}.f{fill:#edeff1;}</style></defs><path class="a" d="M31.535,40.716,25.358,39H18.415l-6.177,1.716A5.785,5.785,0,0,0,8,46.291v6.017H35.773V46.291a5.785,5.785,0,0,0-4.238-5.575Z" transform="translate(-8 -17.592)"/><g transform="translate(4.629 21.408)"><path class="b" d="M16,56h1.157v3.472H16Z" transform="translate(-16 -46.164)"/><path class="b" d="M46,56h1.157v3.472H46Z" transform="translate(-28.642 -46.164)"/><path class="b" d="M28.641,43.629a4.631,4.631,0,0,0,4.613-4.312L32.112,39H25.169l-1.141.317A4.631,4.631,0,0,0,28.641,43.629Z" transform="translate(-19.383 -39)"/></g><path class="c" d="M32.943,32v4.05a3.472,3.472,0,0,1-6.943,0V32Z" transform="translate(-15.585 -14.642)"/><path class="d" d="M34.017,15.2v4.05a7.425,7.425,0,1,1-14.85,0V15.2a2.7,2.7,0,0,1,2.7-2.7h9.45A2.7,2.7,0,0,1,34.017,15.2Z" transform="translate(-12.706 -6.425)"/><path class="e" d="M31.317,4.025h-.1A2.7,2.7,0,0,0,28.617,2h-2.7a6.749,6.749,0,0,0-6.75,6.75v6.075l1.35-4.05h8.1a2.7,2.7,0,0,0,2.6-2.025h.363A1.35,1.35,0,0,1,32.9,9.808l1.115,5.018v-8.1A2.7,2.7,0,0,0,31.317,4.025Z" transform="translate(-12.705 -2)"/><path class="d" d="M44.833,17.167h.432A1.35,1.35,0,0,1,46.6,18.739l-.225,1.35a1.351,1.351,0,0,1-1.332,1.128h-.207Z" transform="translate(-23.522 -8.391)"/><path class="d" d="M17.869,17.167h-.432a1.35,1.35,0,0,0-1.332,1.572l.225,1.35a1.351,1.351,0,0,0,1.332,1.128h.207Z" transform="translate(-11.408 -8.391)"/><path class="f" d="M33.716,17.079h.3V16.5h-.658L31.12,20.977a26.021,26.021,0,0,1-4.526.441,26.007,26.007,0,0,1-4.526-.441L19.829,16.5h-.658v.579h.3l1.914,3.829v3.7l-1.548-3.483h-.654v.579h.278l1.924,4.328v.426a1.165,1.165,0,0,0,.715,1.073,11.489,11.489,0,0,0,4.492.826,11.489,11.489,0,0,0,4.492-.826,1.165,1.165,0,0,0,.715-1.073v-.426l1.924-4.328H34v-.579h-.654L31.8,24.611v-3.7Z" transform="translate(-12.708 -8.11)"/></svg>