<svg xmlns="http://www.w3.org/2000/svg" width="31.276" height="41.548" viewBox="0 0 31.276 41.548"><defs><style>.a{fill:#e1e6e9;}.b{fill:#ebf0f3;}.c{fill:#5aca42;}.d{fill:#ffc931;}</style></defs><path class="a" d="M84.309,1.108V36.693H59a1.108,1.108,0,0,1-1.108-1.108V6.624L64.514,0H83.2A1.108,1.108,0,0,1,84.309,1.108Z" transform="translate(-57.89)"/><path class="b" d="M64.514,0V6.624H57.89Z" transform="translate(-57.89)"/><g transform="translate(7.556 4.969)"><rect class="c" width="13.916" height="1.635" transform="translate(2.261)"/><rect class="c" width="16.182" height="1.635" transform="translate(0 5.024)"/><rect class="c" width="16.182" height="1.635" transform="translate(0 10.048)"/><rect class="c" width="16.182" height="1.635" transform="translate(0 15.072)"/><rect class="c" width="16.182" height="1.635" transform="translate(0 20.097)"/><rect class="c" width="16.182" height="1.635" transform="translate(0 25.121)"/></g><g transform="translate(2.684 9.993)"><rect class="c" width="2.215" height="1.635" transform="translate(0)"/><rect class="c" width="2.215" height="1.635" transform="translate(0 5.024)"/><rect class="c" width="2.215" height="1.635" transform="translate(0 10.048)"/><rect class="c" width="2.215" height="1.635" transform="translate(0 15.073)"/><rect class="c" width="2.215" height="1.635" transform="translate(0 20.097)"/></g><path class="d" d="M8.769,0A8.769,8.769,0,1,1,0,8.769,8.769,8.769,0,0,1,8.769,0Z" transform="translate(13.737 24.009)"/><path class="b" d="M252.8,324.327a.987.987,0,0,1-.694-.288l-2.713-2.713a.982.982,0,1,1,1.389-1.389l1.766,1.765a20.244,20.244,0,0,1,6.1-6.938.982.982,0,0,1,1.11,1.621,18.827,18.827,0,0,0-6.073,7.389.983.983,0,0,1-.883.553Z" transform="translate(-232.141 -286.681)"/></svg>