<svg xmlns="http://www.w3.org/2000/svg" width="36.438" height="44" viewBox="0 0 36.438 44"><defs><style>.a{opacity:0.8;}.b{fill:#c2d9ef;}.c{fill:#ff5cf0;}.d{fill:#1428bf;}</style></defs><g class="a" transform="translate(1.633 1.719)"><path class="b" d="M68.242,51.972V28.59A8.58,8.58,0,0,1,76.812,20H71.594A8.594,8.594,0,0,0,63,28.594V51.969a8.594,8.594,0,0,0,8.594,8.594h5.218A8.58,8.58,0,0,1,68.242,51.972Z" transform="translate(-63 -20)"/></g><g transform="translate(11.465 15.889)"><ellipse class="c" cx="1.5" cy="2.5" rx="1.5" ry="2.5" transform="translate(0.228 0.111)"/></g><path class="d" d="M70.127,44H54.311A10.322,10.322,0,0,1,44,33.689V10.311A10.322,10.322,0,0,1,54.311,0H70.127A10.322,10.322,0,0,1,80.437,10.311V33.689A10.322,10.322,0,0,1,70.127,44ZM54.311,3.438a6.881,6.881,0,0,0-6.873,6.873V33.689a6.881,6.881,0,0,0,6.873,6.873H70.127A6.881,6.881,0,0,0,77,33.689V10.311a6.881,6.881,0,0,0-6.873-6.873Z" transform="translate(-44 0)"/><g transform="translate(18.82 6.875)"><path class="d" d="M271.938,90.656h-2.922A6.022,6.022,0,0,1,263,84.641V81.719a1.719,1.719,0,0,1,3.438,0v2.922a2.581,2.581,0,0,0,2.578,2.578h2.922a1.719,1.719,0,0,1,0,3.437Z" transform="translate(-263 -80)"/></g><g transform="translate(9.883 30.508)"><path class="c" d="M172.578,358.438H160.719a1.719,1.719,0,0,1,0-3.437h11.859a1.719,1.719,0,1,1,0,3.438Z" transform="translate(-159 -355)"/></g><g transform="translate(9.883 23.891)"><path class="c" d="M172.578,281.438H160.719a1.719,1.719,0,0,1,0-3.438h11.859a1.719,1.719,0,0,1,0,3.438Z" transform="translate(-159 -278)"/></g></svg>