<svg xmlns="http://www.w3.org/2000/svg" width="15.884" height="13" viewBox="0 0 15.884 13"><defs><style>.a{fill:#696969;}</style></defs><path class="a" d="M5.926,13a13.629,13.629,0,0,1-2.105-.167,9.879,9.879,0,0,1-2.88-1.048L0,11.271l1.019-.335c1.114-.366,1.791-.593,2.63-.949A3.5,3.5,0,0,1,1.851,7.9l-.237-.72.194.03a3.535,3.535,0,0,1-.443-.546A3.351,3.351,0,0,1,.8,4.674l.045-.628.376.146a3.515,3.515,0,0,1-.341-.955A3.633,3.633,0,0,1,1.264.791l.328-.6L2.03.716A8.063,8.063,0,0,0,7.253,3.657,3.124,3.124,0,0,1,7.442,2,3.108,3.108,0,0,1,8.706.548a3.8,3.8,0,0,1,2.2-.541A3.518,3.518,0,0,1,13.07.9a7.259,7.259,0,0,0,.791-.264c.174-.065.37-.139.617-.224L15.386.1l-.592,1.69.121-.008.969-.044-.573.783c-.033.045-.041.058-.053.075-.046.07-.1.156-.89,1.206a1.481,1.481,0,0,0-.277.964,9.12,9.12,0,0,1-.5,3.668,6.491,6.491,0,0,1-1.742,2.581A7.7,7.7,0,0,1,8.2,12.777,11.23,11.23,0,0,1,5.926,13Zm0,0" transform="translate(0 0)"/></svg>