<svg xmlns="http://www.w3.org/2000/svg" width="36.427" height="45.534" viewBox="0 0 36.427 45.534"><defs><style>.a{fill:#58a1f5;}.b{fill:#0057ff;}.c{fill:#fcb98b;}.d{fill:#ffd3b3;}.e{fill:#6e83b7;}.f{fill:#edeff1;}</style></defs><path class="a" d="M38.869,41.251,30.767,39H21.66l-8.1,2.251A7.588,7.588,0,0,0,8,48.563v7.892H44.427V48.563a7.588,7.588,0,0,0-5.558-7.312Z" transform="translate(-8 -10.921)"/><g transform="translate(6.071 28.079)"><path class="b" d="M16,56h1.518v4.553H16Z" transform="translate(-16 -43.099)"/><path class="b" d="M46,56h1.518v4.553H46Z" transform="translate(-23.233 -43.099)"/><path class="b" d="M30.078,45.071a6.074,6.074,0,0,0,6.05-5.655L34.631,39H25.525l-1.5.416A6.074,6.074,0,0,0,30.078,45.071Z" transform="translate(-17.936 -39)"/></g><path class="c" d="M35.107,32v5.312a4.553,4.553,0,1,1-9.107,0V32Z" transform="translate(-12.34 -9.233)"/><path class="d" d="M38.645,16.042v5.312a9.739,9.739,0,1,1-19.478,0V16.042A3.542,3.542,0,0,1,22.709,12.5H35.1A3.541,3.541,0,0,1,38.645,16.042Z" transform="translate(-10.692 -4.532)"/><path class="e" d="M35.1,4.656h-.125A3.534,3.534,0,0,0,31.562,2H28.02a8.853,8.853,0,0,0-8.854,8.854v7.968l1.771-5.312H31.561a3.534,3.534,0,0,0,3.417-2.656h.476a1.771,1.771,0,0,1,1.729,1.387l1.462,6.582V8.2A3.541,3.541,0,0,0,35.1,4.656Z" transform="translate(-10.692 -2)"/><path class="d" d="M44.833,17.167H45.4a1.771,1.771,0,0,1,1.747,2.062L46.851,21a1.771,1.771,0,0,1-1.747,1.48h-.271Z" transform="translate(-16.88 -5.657)"/><path class="d" d="M18.424,17.167h-.566a1.771,1.771,0,0,0-1.747,2.062l.3,1.771a1.771,1.771,0,0,0,1.747,1.48h.271Z" transform="translate(-9.95 -5.657)"/><path class="f" d="M38.248,17.259h.4V16.5H37.78l-2.936,5.872a34.13,34.13,0,0,1-5.937.579,34.111,34.111,0,0,1-5.936-.579L20.035,16.5h-.864v.759h.4l2.51,5.022v4.858l-2.03-4.568h-.858v.759h.364l2.524,5.677v.559a1.529,1.529,0,0,0,.938,1.408,15.069,15.069,0,0,0,5.892,1.083A15.069,15.069,0,0,0,34.8,30.974a1.528,1.528,0,0,0,.938-1.408v-.559L38.26,23.33h.364v-.759h-.858l-2.029,4.568V22.281Z" transform="translate(-10.693 -5.496)"/></svg>