<svg xmlns="http://www.w3.org/2000/svg" width="26.53" height="31.7" viewBox="0 0 26.53 31.7"><defs><style>.a{fill:#696969;stroke:#fcfcfc;stroke-width:0.5px;}</style></defs><g transform="translate(0.25 0.25)"><path class="a" d="M94.546,15.029a7.271,7.271,0,0,0,5.313-2.2,7.272,7.272,0,0,0,2.2-5.313A7.272,7.272,0,0,0,99.86,2.2a7.513,7.513,0,0,0-10.626,0,7.271,7.271,0,0,0-2.2,5.313,7.272,7.272,0,0,0,2.2,5.313A7.274,7.274,0,0,0,94.546,15.029ZM90.526,3.494a5.684,5.684,0,0,1,8.041,0,5.433,5.433,0,0,1,1.666,4.02,5.433,5.433,0,0,1-1.666,4.02,5.684,5.684,0,0,1-8.041,0,5.432,5.432,0,0,1-1.666-4.02,5.432,5.432,0,0,1,1.666-4.02Zm0,0" transform="translate(-81.728)"/><path class="a" d="M25.967,256.237a18.561,18.561,0,0,0-.253-1.971,15.533,15.533,0,0,0-.485-1.982,9.792,9.792,0,0,0-.815-1.849,6.969,6.969,0,0,0-1.228-1.6,5.417,5.417,0,0,0-1.765-1.109,6.1,6.1,0,0,0-2.253-.408,2.287,2.287,0,0,0-1.221.518c-.366.239-.794.515-1.272.82a7.29,7.29,0,0,1-1.646.725,6.393,6.393,0,0,1-4.027,0,7.269,7.269,0,0,1-1.645-.725c-.473-.3-.9-.579-1.273-.821a2.285,2.285,0,0,0-1.221-.518,6.092,6.092,0,0,0-2.253.408,5.413,5.413,0,0,0-1.765,1.109,6.97,6.97,0,0,0-1.228,1.6A9.81,9.81,0,0,0,.8,252.283a15.568,15.568,0,0,0-.485,1.982,18.434,18.434,0,0,0-.253,1.972c-.041.6-.062,1.216-.062,1.842A5.181,5.181,0,0,0,1.538,262,5.538,5.538,0,0,0,5.5,263.445H20.526A5.539,5.539,0,0,0,24.491,262a5.179,5.179,0,0,0,1.539-3.92c0-.629-.021-1.249-.063-1.843Zm-2.736,4.438a3.729,3.729,0,0,1-2.7.942H5.5a3.729,3.729,0,0,1-2.7-.942,3.383,3.383,0,0,1-.971-2.6c0-.585.019-1.162.058-1.716a16.629,16.629,0,0,1,.229-1.775,13.733,13.733,0,0,1,.426-1.747,7.985,7.985,0,0,1,.663-1.5,5.166,5.166,0,0,1,.9-1.183,3.593,3.593,0,0,1,1.174-.73,4.207,4.207,0,0,1,1.44-.278c.064.034.178.1.363.219.376.245.809.524,1.288.83a9.058,9.058,0,0,0,2.066.923,8.219,8.219,0,0,0,5.152,0,9.069,9.069,0,0,0,2.068-.924c.49-.313.911-.585,1.287-.83.185-.12.3-.185.363-.219a4.21,4.21,0,0,1,1.44.278,3.6,3.6,0,0,1,1.174.73,5.152,5.152,0,0,1,.9,1.184,7.958,7.958,0,0,1,.663,1.5,13.7,13.7,0,0,1,.427,1.747,16.766,16.766,0,0,1,.229,1.776h0c.039.552.058,1.129.059,1.715a3.383,3.383,0,0,1-.971,2.595Zm0,0" transform="translate(0 -232.245)"/></g></svg>