<svg xmlns="http://www.w3.org/2000/svg" xmlns:xlink="http://www.w3.org/1999/xlink" width="2772.467" height="180.933" viewBox="0 0 2772.467 180.933"><defs><style>.a{opacity:0.29;fill:url(#a);}</style><linearGradient id="a" x1="0.5" x2="0.5" y2="1" gradientUnits="objectBoundingBox"><stop offset="0" stop-color="#ccc"/><stop offset="1" stop-color="#fff" stop-opacity="0"/></linearGradient></defs><path class="a" d="M0,112.415,51.406,99.033C102.62,85.4,206.01,59.014,308.052,58.826c102.62.188,206.01,26.575,308.052,50.259,102.62,23.433,206.01,43.537,308.052,33.485,102.62-10.052,206.01-50.259,308.052-60.311,102.62-10.052,206.01,10.052,308.052,20.1,102.62,10.052,206.01,10.052,308.052,6.722,102.62-3.581,206.01-9.863,308.052-6.722,102.62,3.141,206.01,16.962,308.052,6.722,102.62-9.863,206.01-43.788,256.068-60.311L2772.467,32V212.933H0Z" transform="translate(0 -32)"/></svg>