<svg xmlns="http://www.w3.org/2000/svg" width="18.909" height="13" viewBox="0 0 18.909 13"><defs><style>.a{fill:#696969;}</style></defs><g transform="translate(0 -80)"><g transform="translate(0 80)"><path class="a" d="M18.105,81.253c-.513-.912-1.07-1.08-2.2-1.144S11.923,80,9.457,80s-5.319.032-6.45.108S1.318,80.339.8,81.253,0,83.733,0,86.5v.009c0,2.751.272,4.333.8,5.234s1.074,1.078,2.205,1.155S6.986,93,9.457,93s5.313-.039,6.447-.1,1.69-.242,2.2-1.155c.533-.9.8-2.483.8-5.234V86.5C18.909,83.733,18.64,82.164,18.105,81.253ZM7.091,90.045V82.955L13,86.5Z" transform="translate(0 -80)"/></g></g></svg>